<svg version="1.1" id="Layer_1" xmlns="http://www.w3.org/2000/svg" xmlns:xlink="http://www.w3.org/1999/xlink" x="0px" y="0px"
	 width="100%" viewBox="0 0 541 461" enable-background="new 0 0 541 461" xml:space="preserve">
<path fill="#000000" opacity="1.000000" stroke="none" 
	d="
M324.000000,462.000000 
	C216.000031,462.000000 108.500053,462.000000 1.000058,462.000000 
	C1.000038,308.333405 1.000038,154.666794 1.000019,1.000140 
	C181.333237,1.000093 361.666473,1.000093 541.999756,1.000047 
	C541.999878,154.666519 541.999878,308.333038 541.999939,461.999786 
	C469.500000,462.000000 397.000000,462.000000 324.000000,462.000000 
M261.508759,134.782654 
	C261.771698,134.620193 261.896667,134.384476 262.049500,134.071594 
	C262.049500,134.071594 262.073029,133.907364 262.517365,133.830078 
	C262.805573,133.659760 262.944397,133.407242 263.060913,133.062332 
	C263.060913,133.062332 263.073242,132.935471 263.520355,132.839966 
	C263.804443,132.666885 263.956238,132.414261 264.061005,132.074249 
	C264.061005,132.074249 264.077942,131.990326 264.760742,131.898422 
	C268.550629,129.620010 272.340485,127.341606 276.942505,125.007309 
	C286.199005,122.422089 295.532654,122.144707 305.401337,124.636658 
	C319.298706,128.918732 329.813019,137.799332 337.781799,149.578598 
	C343.784882,158.452240 347.242798,168.326706 343.859589,179.225311 
	C342.849762,182.478348 340.804565,185.409958 339.228821,188.498535 
	C339.898834,188.800644 340.262634,189.115311 340.483643,189.035355 
	C341.083008,188.818527 341.662140,188.489014 342.178345,188.108047 
	C347.650208,184.069794 351.700989,178.888123 353.518829,172.337250 
	C354.998901,167.003845 355.822205,161.488190 357.090485,155.131332 
	C357.517853,145.525970 355.773956,136.403809 351.003052,127.993568 
	C351.003052,127.993568 351.062805,127.999352 351.024109,127.393433 
	C350.699890,126.906525 350.375671,126.419609 350.006439,125.977722 
	C350.006439,125.977722 350.069458,125.986786 349.917511,125.508377 
	C349.737091,125.212540 349.484131,125.005287 349.088745,124.164162 
	C349.040222,123.837616 349.074677,123.468163 348.931274,123.190681 
	C343.173584,112.052162 332.996063,105.621010 323.029572,98.984634 
	C322.600403,98.698860 321.767548,99.019318 320.987396,98.345604 
	C318.007568,96.900558 315.027771,95.455513 311.531891,93.489128 
	C297.741455,88.236397 283.590515,86.509979 268.142517,89.027802 
	C262.768738,90.344498 257.394928,91.661194 251.979919,92.960777 
	C251.979919,92.960777 251.964951,93.002831 251.211136,93.023895 
	C240.684616,96.494621 231.267685,101.891876 222.514816,109.448898 
	C222.052200,109.964462 221.589584,110.480026 220.508530,111.156593 
	C219.975998,111.801414 219.443466,112.446236 218.350891,113.418396 
	C209.435547,122.130150 200.686157,130.933548 195.703888,142.725189 
	C188.146378,160.611740 188.176758,178.078918 198.188751,195.556534 
	C198.363419,195.823364 198.610275,195.959595 198.932953,196.050812 
	C198.932953,196.050812 199.014679,196.076553 199.080368,196.770050 
	C205.071167,206.550903 213.045151,214.290115 223.247040,220.547699 
	C223.785156,220.791595 224.323257,221.035492 225.160889,221.629852 
	C225.432327,221.781677 225.721634,221.881866 226.168915,222.445694 
	C226.481430,222.557800 226.793961,222.669907 227.508835,222.955154 
	C227.508835,222.955154 227.942841,223.014389 228.337875,223.585083 
	C235.532867,226.756180 242.727844,229.927261 250.374130,233.677460 
	C256.900482,236.137543 263.426849,238.597626 270.411255,241.573166 
	C273.247498,242.748276 276.083771,243.923386 279.256378,245.622849 
	C280.166656,246.085983 281.076965,246.549118 282.410034,247.535431 
	C284.606018,248.691330 286.801971,249.847214 289.347229,251.450684 
	C289.862030,251.673096 290.376862,251.895493 291.097900,252.577011 
	C291.383728,252.733658 291.669586,252.890320 292.304779,253.606262 
	C294.175568,254.768799 296.046387,255.931351 298.165985,257.583710 
	C298.609497,257.900238 299.053040,258.216797 299.852509,259.052399 
	C300.889923,259.713654 301.927307,260.374908 303.320190,261.598297 
	C306.334839,265.325287 309.349518,269.052246 311.696259,273.201141 
	C310.744263,277.803955 309.792267,282.406738 308.264679,287.293518 
	C306.495392,289.845520 304.726135,292.397522 302.972534,294.978302 
	C302.972534,294.978302 302.945587,294.952209 302.358276,295.272400 
	C298.632446,298.216187 295.224121,301.748840 291.107666,303.968048 
	C284.663818,307.441956 277.741211,310.027802 270.146240,313.032806 
	C259.280579,314.946930 248.562531,314.527649 237.639099,310.549805 
	C237.063721,310.415771 236.488342,310.281769 235.991898,310.001221 
	C235.991898,310.001221 235.906082,310.145416 235.491562,309.575775 
	C228.946716,307.399750 223.458237,303.724701 218.894180,298.497711 
	C213.398300,292.203583 207.664581,286.117096 201.691284,279.357513 
	C200.088913,276.971558 198.486542,274.585632 196.584595,271.549011 
	C194.061127,265.413361 191.537643,259.277679 188.968872,252.272888 
	C188.586700,246.515854 188.204514,240.758820 187.981903,234.243637 
	C189.982544,229.013229 191.983200,223.782822 194.029327,218.433533 
	C193.527679,218.611420 192.762604,218.788620 192.090164,219.142059 
	C190.928452,219.752655 189.813904,220.456039 188.697571,221.149460 
	C180.186752,226.436096 174.928894,234.474060 169.863907,243.625580 
	C168.905472,246.407272 167.947021,249.188950 166.507843,252.449036 
	C166.106812,253.979965 165.705780,255.510880 165.103790,257.747711 
	C165.059555,258.480042 165.015305,259.212402 164.422897,260.523132 
	C164.029678,264.709106 163.636459,268.895111 163.102783,273.994141 
	C164.125183,282.507446 164.316299,291.227478 166.369507,299.484467 
	C169.274826,311.168243 174.868683,321.744202 184.162598,330.496429 
	C184.345230,330.757751 184.587906,330.938446 185.108002,331.513428 
	C185.395660,331.697388 185.683319,331.881317 185.963089,331.999786 
	C185.963089,331.999786 185.927658,332.055420 186.015839,332.720886 
	C186.663406,333.184448 187.310974,333.647980 188.244446,334.642242 
	C189.137009,335.438507 190.029572,336.234802 191.198395,337.545258 
	C191.793625,338.029114 192.388855,338.512970 192.993011,339.007111 
	C192.993011,339.007111 193.003647,339.015686 193.355576,339.578888 
	C195.217087,340.745422 197.078613,341.911987 199.006088,343.018097 
	C199.006088,343.018097 198.934219,343.065399 199.230606,343.631134 
	C200.134338,344.115906 201.038086,344.600677 202.005783,345.016815 
	C202.005783,345.016815 201.928360,345.067871 202.254852,345.673096 
	C206.801193,347.820709 211.347534,349.968292 216.396149,352.651489 
	C220.951157,354.044952 225.506149,355.438446 230.903549,356.955658 
	C240.933487,357.281586 250.994797,358.246552 260.984619,357.755920 
	C271.227509,357.252838 281.010345,354.049713 290.787476,348.927429 
	C294.560181,346.641113 298.332886,344.354767 302.790192,341.969727 
	C305.202637,340.231689 307.615082,338.493652 310.418610,336.696320 
	C310.678192,336.546082 310.790527,336.322021 310.976105,335.626343 
	C310.976105,335.626343 311.082458,335.184113 311.686676,334.860474 
	C314.839172,331.870453 317.991669,328.880432 321.783661,326.198822 
	C321.821106,326.679352 322.063995,327.277191 321.866302,327.623474 
	C314.763153,340.062958 308.814362,353.424652 295.502808,360.956696 
	C294.165283,361.713470 292.863739,362.533844 291.545502,363.324707 
	C295.257416,363.765533 298.680695,363.518555 302.023804,362.862762 
	C314.373688,360.440002 326.499268,357.338562 337.820160,349.991577 
	C346.677704,345.085510 354.990234,339.483795 361.901917,331.201935 
	C362.240936,330.774780 362.579956,330.347656 363.422882,329.742279 
	C363.809265,329.155334 364.195618,328.568390 365.025330,327.430939 
	C375.340820,314.168091 380.782043,299.460876 380.132080,282.333130 
	C379.570618,267.537262 374.295441,254.995682 365.190308,243.681671 
	C355.788391,231.998871 343.523773,224.281799 330.099731,218.212326 
	C326.895142,216.763428 323.343353,216.082397 319.358307,214.901581 
	C318.638336,214.585007 317.918335,214.268433 316.883759,213.286484 
	C303.584503,207.194031 290.285248,201.101593 276.581604,194.480179 
	C271.917725,190.786362 267.253815,187.092560 262.221741,182.902588 
	C261.161835,181.922501 260.101929,180.942413 258.889862,179.278885 
	C252.029144,170.237900 249.312485,160.260635 252.568634,148.557419 
	C253.446198,146.338882 254.323776,144.120346 255.721756,141.607880 
	C256.763214,140.089417 257.804688,138.570969 259.390137,136.804321 
	C259.626373,136.489090 259.862610,136.173859 260.500214,135.788300 
	C260.763702,135.634460 260.884460,135.405319 261.055511,135.056534 
	C261.055511,135.056534 261.099609,134.863388 261.508759,134.782654 
z"/>
<path fill="#F9C115" opacity="1.000000" stroke="none" 
	d="
M226.028839,221.930435 
	C225.721634,221.881866 225.432327,221.781677 225.065399,221.136780 
	C224.956116,220.429535 224.942322,220.215332 224.962814,219.773560 
	C216.828766,213.015198 208.057556,207.137344 202.278107,198.047562 
	C201.667465,197.087158 200.124893,196.719315 199.014679,196.076553 
	C199.014679,196.076553 198.932953,196.050812 198.947525,195.776031 
	C198.962097,195.501236 198.874786,195.044250 198.823318,194.677856 
	C195.434082,186.597565 192.735199,178.727249 192.882263,169.817963 
	C192.576294,168.650101 192.248016,167.829880 191.992462,166.619019 
	C192.694107,163.142593 193.323044,160.056824 194.276917,156.873260 
	C197.463486,150.001236 203.939423,155.093811 208.390915,152.155212 
	C209.724792,154.851166 210.912384,157.251480 212.099991,159.651810 
	C212.557495,159.666336 213.015015,159.680878 213.472519,159.695419 
	C213.983704,156.964249 214.246185,154.153381 215.087692,151.528091 
	C215.718063,149.561478 217.094040,147.833847 218.181946,146.404816 
	C218.232315,148.153473 218.238785,149.497147 217.954132,151.117004 
	C214.122101,160.009964 215.871414,168.116898 220.171967,176.306137 
	C224.289963,183.699142 229.427399,189.603470 237.004761,193.430725 
	C238.952545,196.143723 240.874237,198.486298 242.795929,200.828873 
	C244.052582,203.924042 245.358383,207.192245 247.590530,209.602570 
	C250.961426,213.242569 250.533844,217.398544 249.343353,221.168304 
	C248.857071,222.708145 245.245010,223.343582 242.987717,224.216461 
	C241.018860,224.977783 238.955444,225.494614 236.598511,226.039764 
	C234.436203,224.993744 232.609192,224.027420 230.657074,222.797104 
	C229.341583,222.215363 228.151215,221.897614 226.720551,221.648102 
	C226.480255,221.716354 226.028839,221.930435 226.028839,221.930435 
z"/>
<path fill="#0C7948" opacity="1.000000" stroke="none" 
	d="
M321.122742,99.057373 
	C321.767548,99.019318 322.600403,98.698860 323.029572,98.984634 
	C332.996063,105.621010 343.173584,112.052162 348.931274,123.190681 
	C349.074677,123.468163 349.040222,123.837616 349.238220,124.735184 
	C349.569855,125.578194 349.797119,125.805061 350.069458,125.986786 
	C350.069458,125.986786 350.006439,125.977722 350.070007,126.257950 
	C350.443298,127.025246 350.753052,127.512299 351.062805,127.999359 
	C351.062805,127.999352 351.003052,127.993568 350.984589,128.379883 
	C351.488800,130.830429 352.373474,132.881744 352.447662,134.961960 
	C352.554016,137.943375 355.037140,141.404190 351.063660,143.643784 
	C350.963806,143.452026 350.732452,143.086685 350.732635,142.777740 
	C350.217865,141.588821 349.702881,140.708878 349.093567,139.550110 
	C348.423828,138.789780 347.848419,138.308289 347.089783,137.657867 
	C346.675171,137.240952 346.400421,137.058197 346.028656,136.618469 
	C345.027740,135.489700 344.080444,134.683197 343.067139,133.934509 
	C343.001190,133.992355 343.127899,133.869873 343.127228,133.530350 
	C341.765503,131.786774 340.404480,130.382706 339.028564,128.980560 
	C339.013702,128.982468 339.028290,128.955917 338.972778,128.663116 
	C338.309906,127.892624 337.702545,127.414925 337.080017,126.933884 
	C337.064880,126.930542 337.059082,126.900093 336.935730,126.612946 
	C335.917694,125.809692 335.022980,125.293571 333.980957,124.539108 
	C333.250580,123.848976 332.667542,123.397194 331.958557,122.646500 
	C331.263397,122.094872 330.694122,121.842155 330.053741,121.478424 
	C329.982605,121.367401 329.721222,121.332451 329.707977,121.242325 
	C329.694733,121.152206 329.526581,121.077652 329.370453,120.837753 
	C329.084167,120.458313 328.954041,120.318771 328.739258,119.848602 
	C320.790253,115.009903 312.925873,110.501846 305.048279,105.965088 
	C305.035034,105.936386 304.972290,105.944145 304.872742,105.784103 
	C304.591125,105.427666 304.366333,105.335617 303.735168,105.255470 
	C302.630035,105.054703 301.888580,104.946381 300.929199,104.635635 
	C300.151062,104.260338 299.590851,104.087448 298.858032,103.849480 
	C298.685364,103.784393 298.316589,103.799133 298.143555,103.621994 
	C297.697296,103.247810 297.392914,103.134232 296.814514,103.031067 
	C296.403961,102.936378 296.236237,102.914726 295.816650,102.692001 
	C294.739105,102.291405 293.913513,102.091896 292.754883,101.697220 
	C285.969635,100.635551 279.517365,99.769058 272.944702,98.608505 
	C273.938080,97.514694 275.031494,96.052879 276.168945,96.017807 
	C287.303131,95.674484 298.444611,95.569046 309.872040,95.617111 
	C313.814270,96.911293 317.468506,97.984329 321.122742,99.057373 
z"/>
<path fill="#999D36" opacity="1.000000" stroke="none" 
	d="
M309.584045,95.395966 
	C298.444611,95.569046 287.303131,95.674484 276.168945,96.017807 
	C275.031494,96.052879 273.938080,97.514694 273.222931,98.856514 
	C278.874054,100.607513 284.126465,101.816452 289.378906,103.025391 
	C285.282837,105.532013 281.365845,107.169380 277.286987,107.887772 
	C272.979797,108.646400 270.554291,110.365654 270.622925,114.954956 
	C265.498322,113.624405 260.746796,112.332329 255.597336,111.008667 
	C252.241165,110.358223 249.282898,109.739357 246.230698,108.863174 
	C246.096588,108.428299 246.056427,108.250717 246.275177,107.892776 
	C247.471542,106.863739 248.409012,106.015068 249.487610,105.128639 
	C249.820618,105.012611 249.943695,104.873528 250.241150,104.593689 
	C250.615494,104.404572 250.746643,104.295380 251.148132,104.167679 
	C252.385071,103.459206 253.351654,102.769249 255.150742,101.485046 
	C253.080154,101.268959 252.066345,101.163155 250.936249,100.738647 
	C248.190216,97.482704 249.518494,95.156464 251.964951,93.002831 
	C251.964951,93.002831 251.979919,92.960777 252.341064,93.091736 
	C254.687683,93.665741 258.169464,94.906998 258.425323,94.427383 
	C260.784515,90.004967 265.454071,90.762878 268.994141,89.140282 
	C283.590515,86.509979 297.741455,88.236397 311.523621,93.983566 
	C310.871582,94.783997 310.227814,95.089981 309.584045,95.395966 
M268.390625,98.209564 
	C268.225769,98.010376 268.060913,97.811188 267.896057,97.611992 
	C267.789276,97.710953 267.682465,97.809914 267.575684,97.908867 
	C267.764313,98.086113 267.952942,98.263367 268.390625,98.209564 
z"/>
<path fill="#028F4E" opacity="1.000000" stroke="none" 
	d="
M184.890625,331.038544 
	C184.587906,330.938446 184.345230,330.757751 184.072693,329.902649 
	C183.340012,327.680450 182.546509,326.090820 182.113464,324.408386 
	C181.870956,323.466248 181.865295,322.030670 182.418015,321.444275 
	C182.918915,320.912842 184.579437,320.810303 185.286118,321.242462 
	C190.738129,324.576202 196.007431,323.850250 200.327484,319.145935 
	C202.055130,319.540741 203.450424,319.806061 205.066254,320.272034 
	C205.839859,320.657776 206.392914,320.842896 206.950134,321.041260 
	C206.954285,321.054535 206.974762,321.073364 207.071777,321.401978 
	C207.908447,322.373718 208.545212,323.258972 209.403229,323.623718 
	C221.827911,328.905243 234.392258,333.745331 247.838608,335.422272 
	C246.167282,336.096710 244.582626,336.901917 243.137756,336.701141 
	C231.890030,335.138397 221.130981,337.772583 210.435394,340.531433 
	C208.992676,340.903564 208.116425,343.471832 206.557297,345.023254 
	C204.733932,345.038177 203.331146,345.053040 201.928360,345.067871 
	C201.928360,345.067871 202.005783,345.016815 201.883392,344.726349 
	C200.818741,343.979065 199.876480,343.522247 198.934219,343.065399 
	C198.934219,343.065399 199.006088,343.018097 198.913940,342.693115 
	C196.882416,341.250641 194.943039,340.133148 193.003647,339.015686 
	C193.003647,339.015686 192.993011,339.007111 192.909210,338.702271 
	C192.190994,337.941956 191.556564,337.486511 190.922150,337.031067 
	C190.029572,336.234802 189.137009,335.438507 188.030350,334.068359 
	C187.186722,333.014801 186.557190,332.535095 185.927658,332.055420 
	C185.927658,332.055420 185.963089,331.999786 185.822983,331.825500 
	C185.418793,331.446991 185.154709,331.242767 184.890625,331.038544 
z"/>
<path fill="#B97628" opacity="1.000000" stroke="none" 
	d="
M319.951263,215.048187 
	C323.343353,216.082397 326.895142,216.763428 330.099731,218.212326 
	C343.523773,224.281799 355.788391,231.998871 365.190308,243.681671 
	C374.295441,254.995682 379.570618,267.537262 380.132080,282.333130 
	C380.782043,299.460876 375.340820,314.168091 364.605591,327.716675 
	C364.185883,328.002380 363.790985,327.973328 363.866211,327.596863 
	C364.858002,325.327545 365.852905,323.468018 366.675842,321.535278 
	C368.722778,316.727722 372.286163,311.894745 372.310120,307.057434 
	C372.344330,300.151733 368.246552,293.464508 369.510406,286.116974 
	C369.559692,285.830444 368.555969,285.362793 368.042297,284.537872 
	C368.048615,281.739136 368.055511,279.382050 368.278564,276.702209 
	C369.264648,273.771240 369.269104,270.367126 370.972168,268.729248 
	C374.025909,265.792450 374.216644,263.081238 372.363495,259.901276 
	C369.135193,254.361557 366.392059,248.307968 362.149536,243.650284 
	C357.120514,238.129135 350.720581,233.856720 344.577393,228.959763 
	C339.238586,225.895828 334.237152,222.915207 329.083435,219.804153 
	C328.602295,219.759293 328.273468,219.844864 327.956604,219.896805 
	C327.968506,219.863190 327.901794,219.837967 327.622070,219.684006 
	C324.958679,218.340225 322.574982,217.150406 320.147156,215.728333 
	C320.102997,215.496063 319.951263,215.048187 319.951263,215.048187 
z"/>
<path fill="#057F52" opacity="1.000000" stroke="none" 
	d="
M199.995117,319.016449 
	C196.007431,323.850250 190.738129,324.576202 185.286118,321.242462 
	C184.579437,320.810303 182.918915,320.912842 182.418015,321.444275 
	C181.865295,322.030670 181.870956,323.466248 182.113464,324.408386 
	C182.546509,326.090820 183.340012,327.680450 183.978546,329.692780 
	C174.868683,321.744202 169.274826,311.168243 166.369507,299.484467 
	C164.316299,291.227478 164.125183,282.507446 163.338287,273.539490 
	C163.573792,273.084869 163.902634,273.121521 163.911652,273.426086 
	C163.964844,274.134583 164.009018,274.538452 164.095215,275.266693 
	C164.462921,276.398010 164.788589,277.204987 165.154037,278.369629 
	C166.771027,282.161682 168.348236,285.596069 170.061066,289.244934 
	C170.438644,289.695190 170.680603,289.930908 170.932312,290.374146 
	C170.942078,290.581665 171.007645,290.991913 171.074692,291.330841 
	C175.743195,297.133728 180.344650,302.597656 185.174713,308.303162 
	C190.267258,312.035309 195.131195,315.525879 199.995117,319.016449 
z"/>
<path fill="#1FA65E" opacity="1.000000" stroke="none" 
	d="
M290.081451,349.041351 
	C281.010345,354.049713 271.227509,357.252838 260.984619,357.755920 
	C250.994797,358.246552 240.933487,357.281586 230.656219,356.697998 
	C230.913300,355.964996 231.417740,355.489624 232.360504,355.013977 
	C238.963257,353.793396 245.343887,353.208252 251.240479,351.201080 
	C259.675018,348.329987 267.755554,344.419067 276.091248,341.279663 
	C277.932587,342.785767 279.653992,344.916534 281.410583,344.945984 
	C285.137299,345.008514 287.801697,346.380981 290.081451,349.041351 
z"/>
<path fill="#6D8837" opacity="1.000000" stroke="none" 
	d="
M164.971069,259.944733 
	C165.015305,259.212402 165.059555,258.480042 165.506165,257.221008 
	C166.268539,255.119751 166.628555,253.545197 166.988571,251.970642 
	C167.947021,249.188950 168.905472,246.407272 170.210129,243.592834 
	C171.312775,245.602463 171.497879,248.415817 172.963165,249.501663 
	C175.021210,251.026825 178.030319,251.268600 181.176834,252.224609 
	C183.863998,249.290710 187.099258,245.464020 186.256485,239.642273 
	C186.047882,238.201202 187.262131,236.554153 187.822327,235.001785 
	C188.204514,240.758820 188.586700,246.515854 188.950897,253.058075 
	C186.804321,258.451965 184.402695,262.847382 187.119324,268.281097 
	C188.602982,271.248688 186.095963,272.400940 183.429596,272.456085 
	C181.953903,272.486633 180.470871,272.161896 178.812775,271.713013 
	C175.285507,268.518066 173.001495,263.155090 166.915771,267.050842 
	C166.156281,264.275635 165.563660,262.110199 164.971069,259.944733 
z"/>
<path fill="#3EA059" opacity="1.000000" stroke="none" 
	d="
M238.040955,311.002014 
	C248.562531,314.527649 259.280579,314.946930 270.838135,313.251495 
	C275.021362,315.327576 278.512695,317.184998 281.757080,319.277405 
	C278.400452,321.544189 273.843445,322.098755 273.379913,327.979828 
	C277.953461,327.345367 282.114197,326.768188 286.064331,326.417419 
	C284.907257,327.405121 283.960815,328.166443 282.646332,329.003052 
	C278.572723,330.093079 274.867157,331.107758 270.677551,332.086487 
	C263.999634,331.270355 257.460358,333.445984 250.981705,330.418610 
	C252.699081,328.555267 253.866196,327.288971 255.467255,326.019348 
	C259.813263,325.483398 263.725281,324.950775 267.637329,324.418182 
	C267.657684,323.620300 267.678009,322.822449 267.698334,322.024597 
	C255.713867,315.533081 241.836899,315.574005 229.018463,311.615021 
	C229.022644,310.797699 229.025726,310.330261 229.458023,309.900269 
	C231.893524,310.006897 233.899796,310.076141 235.906082,310.145416 
	C235.906082,310.145416 235.991898,310.001221 236.151016,310.300323 
	C236.887070,310.733612 237.464005,310.867828 238.040955,311.002014 
z"/>
<path fill="#BF8F26" opacity="1.000000" stroke="none" 
	d="
M312.364166,272.779236 
	C309.349518,269.052246 306.334839,265.325287 303.243927,261.209656 
	C303.167664,260.820984 303.370361,260.605560 303.666382,260.726379 
	C305.254395,261.609985 306.546387,262.372833 308.033264,263.404724 
	C308.898804,264.399078 309.610870,265.090607 310.233795,265.854797 
	C317.690338,275.002350 326.012054,283.643066 328.077332,296.419281 
	C330.157257,307.744995 328.810211,318.314423 323.779816,328.121796 
	C320.405151,334.701080 316.047485,340.776184 311.946411,347.369812 
	C310.036865,350.585999 308.310577,353.509216 305.888885,357.610016 
	C308.684326,357.906952 310.863800,358.718048 312.683899,358.218903 
	C317.411743,356.922302 321.985352,355.060211 326.613312,353.403717 
	C329.995209,352.193237 333.365692,350.950989 336.835876,349.823669 
	C336.930511,349.924408 337.119995,350.125671 337.119995,350.125671 
	C326.499268,357.338562 314.373688,360.440002 302.023804,362.862762 
	C298.680695,363.518555 295.257416,363.765533 291.545502,363.324707 
	C292.863739,362.533844 294.165283,361.713470 295.502808,360.956696 
	C308.814362,353.424652 314.763153,340.062958 321.866302,327.623474 
	C322.063995,327.277191 321.821106,326.679352 321.489105,326.003174 
	C321.194550,325.807526 321.116608,325.747559 321.354614,325.560669 
	C322.657379,323.899109 323.722137,322.424438 324.824066,320.714478 
	C324.861237,320.479187 324.838470,320.003326 324.862396,319.659424 
	C324.894775,318.856049 324.903229,318.396576 325.142212,317.703369 
	C325.491272,316.624023 325.609833,315.778442 325.767548,314.602478 
	C325.836700,313.829712 325.866699,313.387299 326.148499,312.622925 
	C326.577515,309.037506 327.244934,305.711426 326.837555,302.522644 
	C325.732483,293.872131 324.229187,285.256226 317.160645,278.605225 
	C315.499207,276.441742 313.931671,274.610474 312.364166,272.779236 
M305.211945,358.589935 
	C305.003693,358.761475 304.795471,358.933014 304.587219,359.104553 
	C304.691467,359.215912 304.795746,359.327271 304.899994,359.438629 
	C305.085175,359.241882 305.270325,359.045166 305.211945,358.589935 
z"/>
<path fill="#408A49" opacity="1.000000" stroke="none" 
	d="
M282.004028,319.042358 
	C278.512695,317.184998 275.021362,315.327576 271.275696,313.229980 
	C277.741211,310.027802 284.663818,307.441956 291.107666,303.968048 
	C295.224121,301.748840 298.632446,298.216187 302.635254,295.506226 
	C301.706421,301.697937 301.704651,301.661957 308.117371,301.344666 
	C309.049561,301.298523 310.008209,301.786560 310.935120,302.378876 
	C310.829407,303.427887 310.743225,304.125397 310.450195,305.080048 
	C308.481567,307.893677 306.719849,310.450195 304.747986,312.990936 
	C304.537842,312.975159 304.117157,312.949799 304.211060,312.657593 
	C303.655060,311.704041 302.625305,310.362244 302.411377,310.481720 
	C298.143677,312.864197 293.970154,315.415436 289.385681,317.939117 
	C286.663849,318.311249 284.333923,318.676819 282.004028,319.042358 
z"/>
<path fill="#7E9331" opacity="1.000000" stroke="none" 
	d="
M187.902115,234.622711 
	C187.262131,236.554153 186.047882,238.201202 186.256485,239.642273 
	C187.099258,245.464020 183.863998,249.290710 181.176834,252.224609 
	C178.030319,251.268600 175.021210,251.026825 172.963165,249.501663 
	C171.497879,248.415817 171.312775,245.602463 170.398773,243.276367 
	C174.928894,234.474060 180.186752,226.436096 188.697571,221.149460 
	C189.813904,220.456039 190.928452,219.752655 192.090164,219.142059 
	C192.762604,218.788620 193.527679,218.611420 194.029327,218.433533 
	C191.983200,223.782822 189.982544,229.013229 187.902115,234.622711 
z"/>
<path fill="#408A49" opacity="1.000000" stroke="none" 
	d="
M178.991150,271.997284 
	C180.470871,272.161896 181.953903,272.486633 183.429596,272.456085 
	C186.095963,272.400940 188.602982,271.248688 187.119324,268.281097 
	C184.402695,262.847382 186.804321,258.451965 188.973557,253.492645 
	C191.537643,259.277679 194.061127,265.413361 196.636749,272.180237 
	C191.777344,277.900055 192.235504,280.977203 198.705811,285.413635 
	C202.531326,289.814392 206.171219,293.912628 209.457031,297.988312 
	C203.066360,294.312897 197.029800,290.660034 190.810760,286.728699 
	C185.936447,282.287018 180.493637,278.728485 178.991150,271.997284 
z"/>
<path fill="#4D9E52" opacity="1.000000" stroke="none" 
	d="
M178.812775,271.713013 
	C180.493637,278.728485 185.936447,282.287018 190.712753,287.021973 
	C190.260681,287.868500 189.575287,288.511627 189.209412,288.363861 
	C181.103134,285.089203 170.915955,286.622681 165.114258,278.011963 
	C164.788589,277.204987 164.462921,276.398010 164.248199,275.101990 
	C164.207001,274.115814 164.054810,273.618683 163.902634,273.121521 
	C163.902634,273.121521 163.573792,273.084869 163.408508,273.082977 
	C163.636459,268.895111 164.029678,264.709106 164.696976,260.233948 
	C165.563660,262.110199 166.156281,264.275635 166.915771,267.050842 
	C173.001495,263.155090 175.285507,268.518066 178.812775,271.713013 
z"/>
<path fill="#BF8F26" opacity="1.000000" stroke="none" 
	d="
M350.732452,143.086685 
	C350.732452,143.086685 350.963806,143.452026 351.086243,144.007782 
	C352.815796,148.544144 357.536102,150.972733 356.936737,156.053360 
	C355.822205,161.488190 354.998901,167.003845 353.518829,172.337250 
	C351.700989,178.888123 347.650208,184.069794 342.178345,188.108047 
	C341.662140,188.489014 341.083008,188.818527 340.483643,189.035355 
	C340.262634,189.115311 339.898834,188.800644 339.228821,188.498535 
	C340.804565,185.409958 342.849762,182.478348 343.859589,179.225311 
	C347.242798,168.326706 343.784882,158.452240 337.781799,149.578598 
	C329.813019,137.799332 319.298706,128.918732 305.226807,124.273315 
	C305.052307,123.909981 305.164246,123.748756 305.513580,123.812134 
	C306.573486,123.903435 307.284027,123.931358 308.366577,124.002586 
	C332.713135,134.637009 348.483429,150.963638 346.716492,179.681870 
	C352.552917,173.153732 354.064392,166.088531 352.686371,158.410751 
	C351.698944,152.909134 350.264282,147.487762 349.259552,142.133759 
	C349.904114,142.520172 350.318298,142.803436 350.732452,143.086685 
z"/>
<path fill="#C8AC1B" opacity="1.000000" stroke="none" 
	d="
M193.951981,156.971054 
	C193.323044,160.056824 192.694107,163.142593 191.821869,166.850342 
	C192.005692,168.370071 192.432816,169.267822 192.859955,170.165588 
	C192.735199,178.727249 195.434082,186.597565 198.629181,194.689346 
	C198.486511,195.067230 198.101135,195.130188 198.101135,195.130188 
	C188.176758,178.078918 188.146378,160.611740 195.703888,142.725189 
	C200.686157,130.933548 209.435547,122.130150 218.955032,113.246078 
	C219.979019,112.987167 220.398849,112.900589 220.909546,112.909470 
	C221.000397,113.004929 221.181946,113.196014 221.050140,113.500992 
	C219.558624,115.226295 218.087860,116.557137 216.858612,118.082603 
	C211.823715,124.330833 206.862473,130.638412 201.594162,137.126251 
	C198.860138,143.875931 196.406052,150.423492 193.951981,156.971054 
z"/>
<path fill="#2DA35D" opacity="1.000000" stroke="none" 
	d="
M290.434448,348.984375 
	C287.801697,346.380981 285.137299,345.008514 281.410583,344.945984 
	C279.653992,344.916534 277.932587,342.785767 276.274353,340.997040 
	C279.557831,338.228241 282.762207,336.069550 286.002960,334.262848 
	C287.095947,335.246735 288.080658,336.098236 289.221832,336.471680 
	C293.697632,337.936401 298.829285,337.843140 302.105560,342.068420 
	C298.332886,344.354767 294.560181,346.641113 290.434448,348.984375 
z"/>
<path fill="#06523A" opacity="1.000000" stroke="none" 
	d="
M209.811096,298.010864 
	C206.171219,293.912628 202.531326,289.814392 199.077728,285.259583 
	C200.187302,283.182220 201.110580,281.561462 202.033844,279.940704 
	C207.664581,286.117096 213.398300,292.203583 218.894180,298.497711 
	C223.458237,303.724701 228.946716,307.399750 235.698822,309.860596 
	C233.899796,310.076141 231.893524,310.006897 229.221359,309.666870 
	C226.074860,307.882446 223.594238,306.368805 220.858398,304.629028 
	C217.005814,302.272217 213.408463,300.141541 209.811096,298.010864 
z"/>
<path fill="#4D9E52" opacity="1.000000" stroke="none" 
	d="
M304.117157,312.949799 
	C304.117157,312.949799 304.537842,312.975159 304.688721,313.340363 
	C304.053833,315.348724 303.427765,317.094604 302.449951,318.614166 
	C300.242035,322.045349 301.717499,323.507965 305.135040,323.933075 
	C310.455170,324.594849 315.788727,325.148224 321.116608,325.747559 
	C321.116608,325.747559 321.194550,325.807526 321.169373,325.848969 
	C317.991669,328.880432 314.839172,331.870453 311.233246,334.689087 
	C310.022614,331.274139 308.286224,330.635803 304.812561,330.686920 
	C300.874878,330.744843 296.908875,328.874359 293.071472,327.667053 
	C293.367432,327.267578 293.584747,327.089203 294.068542,326.825195 
	C294.522949,326.427002 294.748535,326.160309 295.156067,325.610809 
	C296.562164,322.872620 297.786285,320.417206 299.222107,317.721252 
	C300.994904,315.970398 302.556030,314.460114 304.117157,312.949799 
z"/>
<path fill="#3EA059" opacity="1.000000" stroke="none" 
	d="
M292.955170,327.842285 
	C296.908875,328.874359 300.874878,330.744843 304.812561,330.686920 
	C308.286224,330.635803 310.022614,331.274139 310.931152,334.850891 
	C311.082458,335.184113 310.976105,335.626343 310.724884,335.926727 
	C310.296082,336.378937 310.147369,336.555115 310.027527,336.755646 
	C307.615082,338.493652 305.202637,340.231689 302.447876,342.019073 
	C298.829285,337.843140 293.697632,337.936401 289.221832,336.471680 
	C288.080658,336.098236 287.095947,335.246735 286.141083,334.083160 
	C286.445374,333.321472 286.680084,333.131165 287.246033,332.911316 
	C288.039093,332.248627 288.533081,331.655151 289.079498,330.833313 
	C289.131958,330.604950 289.196564,330.140808 289.457428,329.976624 
	C290.797241,329.155731 291.876221,328.498993 292.955170,327.842285 
z"/>
<path fill="#6D8837" opacity="1.000000" stroke="none" 
	d="
M310.954620,302.027405 
	C310.008209,301.786560 309.049561,301.298523 308.117371,301.344666 
	C301.704651,301.661957 301.706421,301.697937 302.928894,295.346130 
	C302.945587,294.952209 302.972534,294.978302 303.321136,294.943726 
	C305.393250,292.275970 307.116760,289.642761 308.840302,287.009552 
	C309.792267,282.406738 310.744263,277.803955 312.030212,272.990173 
	C313.931671,274.610474 315.499207,276.441742 316.886963,278.920288 
	C314.789642,287.054199 312.872131,294.540802 310.954620,302.027405 
z"/>
<path fill="#7E9331" opacity="1.000000" stroke="none" 
	d="
M276.985992,195.009155 
	C290.285248,201.101593 303.584503,207.194031 316.733246,213.652496 
	C316.379822,214.051804 316.176880,214.085098 315.807251,214.019775 
	C315.640533,213.921158 315.254639,213.894821 315.109741,213.729126 
	C314.713470,213.387985 314.436005,213.320908 313.719147,213.246765 
	C309.622162,212.322571 305.938416,211.513794 302.002655,210.506958 
	C301.135162,210.175003 300.519653,210.041138 299.788239,209.856567 
	C299.672302,209.805878 299.453033,209.932175 299.270996,209.725464 
	C298.745392,209.416687 298.401825,209.314636 297.717407,209.103821 
	C296.673279,208.900177 295.970093,208.805283 294.898621,208.519943 
	C289.444824,207.520386 284.359283,206.711243 279.215790,205.651367 
	C279.119873,205.233322 279.081909,205.066025 279.056580,204.636414 
	C279.055664,204.199539 279.042084,204.024979 278.985321,203.481552 
	C278.290131,200.411514 277.638062,197.710327 276.985992,195.009155 
z"/>
<path fill="#999D36" opacity="1.000000" stroke="none" 
	d="
M276.783813,194.744659 
	C277.638062,197.710327 278.290131,200.411514 278.666809,203.510025 
	C277.967163,203.922287 277.542847,203.937225 276.789307,203.819412 
	C275.328979,203.342239 274.197876,202.997818 272.942810,202.371201 
	C270.616028,200.427200 268.317841,198.874207 266.248596,197.060043 
	C265.125916,196.075729 263.353760,193.984604 263.648041,193.522705 
	C266.099365,189.675476 263.179688,187.082291 262.066620,183.933273 
	C262.243469,183.757462 262.589935,183.398743 262.589935,183.398743 
	C267.253815,187.092560 271.917725,190.786362 276.783813,194.744659 
z"/>
<path fill="#7E9331" opacity="1.000000" stroke="none" 
	d="
M251.588043,93.013367 
	C249.518494,95.156464 248.190216,97.482704 250.727264,100.887131 
	C249.818939,101.267639 249.003311,101.180969 247.766449,101.038239 
	C245.438324,101.320602 243.432022,101.388596 241.642517,102.046371 
	C235.386154,104.346046 229.204636,106.849327 222.994675,109.275269 
	C231.267685,101.891876 240.684616,96.494621 251.588043,93.013367 
z"/>
<path fill="#C8AC1B" opacity="1.000000" stroke="none" 
	d="
M222.754745,109.362083 
	C229.204636,106.849327 235.386154,104.346046 241.642517,102.046371 
	C243.432022,101.388596 245.438324,101.320602 247.591644,101.294983 
	C246.880234,102.360435 245.922379,103.113075 244.648285,104.024384 
	C239.068497,107.644073 233.804962,111.105095 228.462387,114.214508 
	C228.383347,112.787811 228.383347,111.712715 228.383347,110.210289 
	C225.642151,111.346802 223.412048,112.271416 221.181946,113.196014 
	C221.181946,113.196014 221.000397,113.004929 220.996155,112.613747 
	C221.036957,111.813576 221.081970,111.404587 221.126984,110.995598 
	C221.589584,110.480026 222.052200,109.964462 222.754745,109.362083 
z"/>
<path fill="#BF8F26" opacity="1.000000" stroke="none" 
	d="
M304.996155,123.990463 
	C295.532654,122.144707 286.199005,122.422089 276.101868,125.026855 
	C273.530884,125.058144 271.800598,125.069893 270.048248,125.056023 
	C270.026215,125.030403 269.981995,124.979309 270.104980,124.653366 
	C274.577057,122.525368 278.926086,120.723305 283.560089,118.921021 
	C284.727325,119.244614 285.609589,119.568436 286.889893,120.106316 
	C289.081146,120.559441 290.894196,120.700363 292.663696,121.057198 
	C296.841583,121.899719 300.998718,122.845016 305.164246,123.748749 
	C305.164246,123.748756 305.052307,123.909981 304.996155,123.990463 
z"/>
<path fill="#D1B019" opacity="1.000000" stroke="none" 
	d="
M199.047516,196.423309 
	C200.124893,196.719315 201.667465,197.087158 202.278107,198.047562 
	C208.057556,207.137344 216.828766,213.015198 224.641541,219.768356 
	C223.854843,219.993057 223.423721,219.995392 222.992584,219.997726 
	C213.045151,214.290115 205.071167,206.550903 199.047516,196.423309 
z"/>
<path fill="#0C7948" opacity="1.000000" stroke="none" 
	d="
M201.862564,279.649109 
	C201.110580,281.561462 200.187302,283.182220 198.892120,284.957031 
	C192.235504,280.977203 191.777344,277.900055 196.786530,272.505554 
	C198.486542,274.585632 200.088913,276.971558 201.862564,279.649109 
z"/>
<path fill="#BF8F26" opacity="1.000000" stroke="none" 
	d="
M361.431244,331.493286 
	C354.990234,339.483795 346.677704,345.085510 337.470093,350.058624 
	C337.119995,350.125671 336.930511,349.924408 337.005432,349.538696 
	C340.460480,346.469147 343.840576,343.785278 347.542419,341.006500 
	C349.947083,339.356628 353.496552,338.031799 353.784729,336.195221 
	C354.272034,333.089661 356.665436,333.389343 358.328979,331.922546 
	C359.392334,331.500977 360.173737,331.216461 361.072266,331.073853 
	C361.189453,331.215790 361.431244,331.493286 361.431244,331.493286 
z"/>
<path fill="#6D8837" opacity="1.000000" stroke="none" 
	d="
M357.013611,155.592346 
	C357.536102,150.972733 352.815796,148.544144 351.186096,144.199524 
	C355.037140,141.404190 352.554016,137.943375 352.447662,134.961960 
	C352.373474,132.881744 351.488800,130.830429 351.003448,128.356537 
	C355.773956,136.403809 357.517853,145.525970 357.013611,155.592346 
z"/>
<path fill="#999D36" opacity="1.000000" stroke="none" 
	d="
M252.059799,149.048843 
	C249.312485,160.260635 252.029144,170.237900 258.881256,179.699127 
	C258.872650,180.119354 258.703522,180.276642 258.413025,180.138123 
	C256.778076,179.337143 255.433640,178.674698 254.080566,177.617676 
	C253.029190,174.273773 251.799667,171.375183 250.981918,168.364746 
	C249.191299,161.772949 248.379501,155.152588 251.762726,148.793610 
	C251.861710,148.878708 252.059799,149.048843 252.059799,149.048843 
z"/>
<path fill="#BF8F26" opacity="1.000000" stroke="none" 
	d="
M260.098846,135.858627 
	C259.862610,136.173859 259.626373,136.489090 258.830505,136.962585 
	C257.556000,137.433990 256.841187,137.747131 256.115784,137.695312 
	C259.168030,131.457489 263.077972,126.536438 269.981995,124.979309 
	C269.981995,124.979309 270.026215,125.030403 269.920593,125.360962 
	C267.902649,127.791115 265.990295,129.890717 264.077942,131.990326 
	C264.077942,131.990326 264.061005,132.074249 263.835419,132.182266 
	C263.380096,132.463013 263.201233,132.678085 263.073242,132.935471 
	C263.073242,132.935471 263.060913,133.062332 262.822388,133.170471 
	C262.364624,133.448364 262.194336,133.657944 262.073029,133.907364 
	C262.073029,133.907364 262.049500,134.071594 261.804321,134.169617 
	C261.356598,134.428131 261.203430,134.626709 261.099609,134.863388 
	C261.099609,134.863388 261.055511,135.056534 260.800476,135.169205 
	C260.346558,135.435394 260.197693,135.627640 260.098846,135.858627 
z"/>
<path fill="#BF8F26" opacity="1.000000" stroke="none" 
	d="
M230.782181,223.061096 
	C232.609192,224.027420 234.436203,224.993744 236.826065,226.235260 
	C237.952560,226.699478 238.516205,226.888519 239.360352,227.282944 
	C241.715775,228.069229 243.790680,228.650131 246.052612,229.481903 
	C247.585449,230.698685 248.931274,231.664612 250.188538,232.747482 
	C250.099960,232.864426 249.922836,233.098343 249.922836,233.098343 
	C242.727844,229.927261 235.532867,226.756180 228.497681,223.280090 
	C229.365723,223.003769 230.073959,223.032440 230.782181,223.061096 
z"/>
<path fill="#BF8F26" opacity="1.000000" stroke="none" 
	d="
M269.953217,241.057709 
	C263.426849,238.597626 256.900482,236.137543 250.148483,233.387909 
	C249.922836,233.098343 250.099960,232.864426 250.584030,232.837769 
	C257.501740,235.405121 263.935394,237.999161 270.264984,240.709229 
	C270.160919,240.825272 269.953217,241.057709 269.953217,241.057709 
z"/>
<path fill="#7E9331" opacity="1.000000" stroke="none" 
	d="
M268.568329,89.084045 
	C265.454071,90.762878 260.784515,90.004967 258.425323,94.427383 
	C258.169464,94.906998 254.687683,93.665741 252.361694,93.100296 
	C257.394928,91.661194 262.768738,90.344498 268.568329,89.084045 
z"/>
<path fill="#057F52" opacity="1.000000" stroke="none" 
	d="
M231.922180,355.014221 
	C231.417740,355.489624 230.913300,355.964996 230.235016,356.636139 
	C225.506149,355.438446 220.951157,354.044952 216.203644,352.318420 
	C216.011124,351.985352 216.128418,351.854797 216.555389,351.896576 
	C221.962296,352.963654 226.942245,353.988953 231.922180,355.014221 
z"/>
<path fill="#057F52" opacity="1.000000" stroke="none" 
	d="
M202.091614,345.370483 
	C203.331146,345.053040 204.733932,345.038177 206.785522,345.279236 
	C208.676544,346.447937 209.914719,347.366333 211.162048,348.272095 
	C212.813736,349.471497 214.472626,350.661041 216.128418,351.854797 
	C216.128418,351.854797 216.011124,351.985352 215.952499,352.050629 
	C211.347534,349.968292 206.801193,347.820709 202.091614,345.370483 
z"/>
<path fill="#6CA94E" opacity="1.000000" stroke="none" 
	d="
M309.872040,95.617111 
	C310.227814,95.089981 310.871582,94.783997 311.781647,94.244232 
	C315.027771,95.455513 318.007568,96.900558 321.055054,98.701492 
	C317.468506,97.984329 313.814270,96.911293 309.872040,95.617111 
z"/>
<path fill="#B97628" opacity="1.000000" stroke="none" 
	d="
M264.419312,131.944366 
	C265.990295,129.890717 267.902649,127.791115 269.942627,125.386581 
	C271.800598,125.069893 273.530884,125.058144 275.695801,125.054794 
	C272.340485,127.341606 268.550629,129.620010 264.419312,131.944366 
z"/>
<path fill="#408A49" opacity="1.000000" stroke="none" 
	d="
M308.552490,287.151550 
	C307.116760,289.642761 305.393250,292.275970 303.313293,294.929321 
	C304.726135,292.397522 306.495392,289.845520 308.552490,287.151550 
z"/>
<path fill="#999D36" opacity="1.000000" stroke="none" 
	d="
M255.201355,141.901810 
	C254.323776,144.120346 253.446198,146.338882 252.314209,148.803131 
	C252.059799,149.048843 251.861710,148.878708 251.779465,148.496918 
	C252.809021,145.398712 253.920822,142.682297 255.053162,140.290222 
	C255.116241,141.043655 255.158813,141.472733 255.201355,141.901810 
z"/>
<path fill="#BF8F26" opacity="1.000000" stroke="none" 
	d="
M278.920013,245.098511 
	C276.083771,243.923386 273.247498,242.748276 270.182251,241.315430 
	C269.953217,241.057709 270.160919,240.825272 270.616638,240.805450 
	C273.804321,242.074036 276.536346,243.362457 279.181335,244.762848 
	C279.094330,244.874802 278.920013,245.098511 278.920013,245.098511 
z"/>
<path fill="#BF8F26" opacity="1.000000" stroke="none" 
	d="
M288.997955,251.003098 
	C286.801971,249.847214 284.606018,248.691330 282.307861,247.154541 
	C282.205658,246.773666 282.423798,246.534805 282.752319,246.653198 
	C285.191986,248.036087 287.303101,249.300568 289.310120,250.674530 
	C289.205994,250.783997 288.997955,251.003098 288.997955,251.003098 
z"/>
<path fill="#BF8F26" opacity="1.000000" stroke="none" 
	d="
M297.917175,257.093903 
	C296.046387,255.931351 294.175568,254.768799 292.228912,253.203110 
	C292.153046,252.799957 292.347382,252.550339 292.663391,252.681870 
	C294.774750,254.084534 296.570099,255.355682 298.253143,256.743347 
	C298.140808,256.859833 297.917175,257.093903 297.917175,257.093903 
z"/>
<path fill="#057F52" opacity="1.000000" stroke="none" 
	d="
M193.179611,339.297302 
	C194.943039,340.133148 196.882416,341.250641 198.880966,342.723328 
	C197.078613,341.911987 195.217087,340.745422 193.179611,339.297302 
z"/>
<path fill="#B97628" opacity="1.000000" stroke="none" 
	d="
M255.461563,141.754852 
	C255.158813,141.472733 255.116241,141.043655 255.068176,140.059662 
	C255.062653,139.504761 255.107651,139.043503 255.282166,138.910980 
	C255.679962,138.584610 255.859802,138.356506 256.029297,138.087845 
	C256.062408,138.081573 256.126343,138.060272 256.126343,138.060272 
	C256.841187,137.747131 257.556000,137.433990 258.558472,137.086670 
	C257.804688,138.570969 256.763214,140.089417 255.461563,141.754852 
z"/>
<path fill="#999D36" opacity="1.000000" stroke="none" 
	d="
M258.957336,180.040833 
	C260.101929,180.942413 261.161835,181.922501 262.405823,183.150665 
	C262.589935,183.398743 262.243469,183.757462 261.748383,183.832428 
	C260.403381,182.697144 259.553436,181.486893 258.703522,180.276642 
	C258.703522,180.276642 258.872650,180.119354 258.957336,180.040833 
z"/>
<path fill="#D1B019" opacity="1.000000" stroke="none" 
	d="
M230.657074,222.797119 
	C230.073959,223.032440 229.365723,223.003769 228.300171,222.994751 
	C227.942841,223.014389 227.508835,222.955154 227.273651,222.567627 
	C227.012589,221.980026 226.986710,221.779953 226.960831,221.579865 
	C228.151215,221.897614 229.341583,222.215363 230.657074,222.797119 
z"/>
<path fill="#FAB713" opacity="1.000000" stroke="none" 
	d="
M315.973969,214.118378 
	C316.176880,214.085098 316.379822,214.051804 316.890564,213.985184 
	C317.918335,214.268433 318.638336,214.585007 319.654785,214.974884 
	C319.951263,215.048187 320.102997,215.496063 319.770020,215.735611 
	C318.282715,215.356232 317.128326,214.737305 315.973969,214.118378 
z"/>
<path fill="#BF8F26" opacity="1.000000" stroke="none" 
	d="
M303.066193,260.928589 
	C301.927307,260.374908 300.889923,259.713654 299.816528,258.645447 
	C299.780548,258.238525 300.059113,257.938599 300.325012,258.095215 
	C301.517365,259.036438 302.443878,259.820984 303.370361,260.605560 
	C303.370361,260.605560 303.167664,260.820984 303.066193,260.928589 
z"/>
<path fill="#4D9E52" opacity="1.000000" stroke="none" 
	d="
M166.748199,252.209839 
	C166.628555,253.545197 166.268539,255.119751 165.606659,256.868042 
	C165.705780,255.510880 166.106812,253.979965 166.748199,252.209839 
z"/>
<path fill="#BF8F26" opacity="1.000000" stroke="none" 
	d="
M282.096436,246.892944 
	C281.076965,246.549118 280.166656,246.085983 279.088196,245.360687 
	C278.920013,245.098511 279.094330,244.874802 279.476501,244.863892 
	C280.713684,245.413589 281.568756,245.974197 282.423798,246.534805 
	C282.423798,246.534805 282.205658,246.773666 282.096436,246.892944 
z"/>
<path fill="#057F52" opacity="1.000000" stroke="none" 
	d="
M199.082413,343.348267 
	C199.876480,343.522247 200.818741,343.979065 201.851410,344.760681 
	C201.038086,344.600677 200.134338,344.115906 199.082413,343.348267 
z"/>
<path fill="#057F52" opacity="1.000000" stroke="none" 
	d="
M185.971741,332.388153 
	C186.557190,332.535095 187.186722,333.014801 187.887390,333.802979 
	C187.310974,333.647980 186.663406,333.184448 185.971741,332.388153 
z"/>
<path fill="#7E9331" opacity="1.000000" stroke="none" 
	d="
M220.817764,111.076096 
	C221.081970,111.404587 221.036957,111.813576 220.905304,112.518288 
	C220.398849,112.900589 219.979019,112.987167 219.235046,113.082413 
	C219.443466,112.446236 219.975998,111.801414 220.817764,111.076096 
z"/>
<path fill="#057F52" opacity="1.000000" stroke="none" 
	d="
M191.060272,337.288147 
	C191.556564,337.486511 192.190994,337.941956 192.904755,338.697113 
	C192.388855,338.512970 191.793625,338.029114 191.060272,337.288147 
z"/>
<path fill="#BF8F26" opacity="1.000000" stroke="none" 
	d="
M363.790955,327.973328 
	C363.790985,327.973328 364.185883,328.002380 364.383911,327.991882 
	C364.195618,328.568390 363.809265,329.155334 363.134216,329.794769 
	C362.845551,329.847260 362.771332,329.774780 362.861328,329.528748 
	C363.231232,328.846252 363.511108,328.409790 363.790955,327.973328 
z"/>
<path fill="#6D8837" opacity="1.000000" stroke="none" 
	d="
M351.043457,127.696396 
	C350.753052,127.512299 350.443298,127.025246 350.092529,126.235443 
	C350.375671,126.419609 350.699890,126.906525 351.043457,127.696396 
z"/>
<path fill="#BF8F26" opacity="1.000000" stroke="none" 
	d="
M299.638550,258.385925 
	C299.053040,258.216797 298.609497,257.900238 298.041565,257.338806 
	C297.917175,257.093903 298.140808,256.859833 298.484436,256.880066 
	C299.238403,257.246399 299.648773,257.592499 300.059113,257.938599 
	C300.059113,257.938599 299.780548,258.238525 299.638550,258.385925 
z"/>
<path fill="#BF8F26" opacity="1.000000" stroke="none" 
	d="
M290.891663,252.117905 
	C290.376862,251.895493 289.862030,251.673096 289.172607,251.226898 
	C288.997955,251.003098 289.205994,250.783997 289.548218,250.807114 
	C290.351562,251.126022 290.812714,251.421814 291.177856,251.817245 
	C291.081879,251.916901 290.891663,252.117905 290.891663,252.117905 
z"/>
<path fill="#BF8F26" opacity="1.000000" stroke="none" 
	d="
M362.882263,329.883911 
	C362.579956,330.347656 362.240936,330.774780 361.666565,331.347595 
	C361.431244,331.493286 361.189453,331.215790 361.264526,330.880402 
	C361.816864,330.288269 362.294098,330.031525 362.771332,329.774780 
	C362.771332,329.774780 362.845551,329.847260 362.882263,329.883911 
z"/>
<path fill="#BF8F26" opacity="1.000000" stroke="none" 
	d="
M223.119812,220.272705 
	C223.423721,219.995392 223.854843,219.993057 224.607239,219.995941 
	C224.942322,220.215332 224.956116,220.429535 224.915649,220.961563 
	C224.323257,221.035492 223.785156,220.791595 223.119812,220.272705 
z"/>
<path fill="#06523A" opacity="1.000000" stroke="none" 
	d="
M237.840027,310.775940 
	C237.464005,310.867828 236.887070,310.733612 236.111542,310.373596 
	C236.488342,310.281769 237.063721,310.415771 237.840027,310.775940 
z"/>
<path fill="#D1B019" opacity="1.000000" stroke="none" 
	d="
M198.144943,195.343353 
	C198.101135,195.130188 198.486511,195.067230 198.680649,195.055740 
	C198.874786,195.044250 198.962097,195.501236 198.945709,195.733215 
	C198.610275,195.959595 198.363419,195.823364 198.144943,195.343353 
z"/>
<path fill="#4D9E52" opacity="1.000000" stroke="none" 
	d="
M310.223083,336.725983 
	C310.147369,336.555115 310.296082,336.378937 310.614624,336.125610 
	C310.790527,336.322021 310.678192,336.546082 310.223083,336.725983 
z"/>
<path fill="#BF8F26" opacity="1.000000" stroke="none" 
	d="
M292.054230,252.923462 
	C291.669586,252.890320 291.383728,252.733658 290.994781,252.347458 
	C290.891663,252.117905 291.081879,251.916901 291.354858,251.958282 
	C291.863770,252.188293 292.103638,252.371857 292.347382,252.550339 
	C292.347382,252.550339 292.153046,252.799957 292.054230,252.923462 
z"/>
<path fill="#B97628" opacity="1.000000" stroke="none" 
	d="
M262.295197,133.868713 
	C262.194336,133.657944 262.364624,133.448364 262.758881,133.175583 
	C262.944397,133.407242 262.805573,133.659760 262.295197,133.868713 
z"/>
<path fill="#057F52" opacity="1.000000" stroke="none" 
	d="
M184.999313,331.276001 
	C185.154709,331.242767 185.418793,331.446991 185.826935,331.858215 
	C185.683319,331.881317 185.395660,331.697388 184.999313,331.276001 
z"/>
<path fill="#BF8F26" opacity="1.000000" stroke="none" 
	d="
M226.720551,221.648117 
	C226.986710,221.779953 227.012589,221.980026 227.072464,222.481064 
	C226.793961,222.669907 226.481430,222.557800 226.098877,222.188065 
	C226.028839,221.930435 226.480255,221.716354 226.720551,221.648117 
z"/>
<path fill="#6D8837" opacity="1.000000" stroke="none" 
	d="
M349.993469,125.747581 
	C349.797119,125.805061 349.569855,125.578194 349.273163,125.096405 
	C349.484131,125.005287 349.737091,125.212540 349.993469,125.747581 
z"/>
<path fill="#B97628" opacity="1.000000" stroke="none" 
	d="
M260.299530,135.823456 
	C260.197693,135.627640 260.346558,135.435394 260.703918,135.191376 
	C260.884460,135.405319 260.763702,135.634460 260.299530,135.823456 
z"/>
<path fill="#B97628" opacity="1.000000" stroke="none" 
	d="
M261.304199,134.823029 
	C261.203430,134.626709 261.356598,134.428131 261.721405,134.171570 
	C261.896667,134.384476 261.771698,134.620193 261.304199,134.823029 
z"/>
<path fill="#B97628" opacity="1.000000" stroke="none" 
	d="
M263.296814,132.887726 
	C263.201233,132.678085 263.380096,132.463013 263.792786,132.186203 
	C263.956238,132.414261 263.804443,132.666885 263.296814,132.887726 
z"/>
<path fill="#FAB713" opacity="1.000000" stroke="none" 
	d="
M239.079834,227.077576 
	C238.516205,226.888519 237.952560,226.699478 237.161346,226.314941 
	C238.955444,225.494614 241.018860,224.977783 242.987717,224.216461 
	C245.245010,223.343582 248.857071,222.708145 249.343353,221.168304 
	C250.533844,217.398544 250.961426,213.242569 247.590530,209.602570 
	C245.358383,207.192245 244.052582,203.924042 242.795929,200.828873 
	C240.874237,198.486298 238.952545,196.143723 237.306824,193.591400 
	C250.350861,201.314178 264.424805,204.898422 279.273712,205.902100 
	C284.359283,206.711243 289.444824,207.520386 294.611938,208.775024 
	C292.011627,211.171341 289.329742,213.122177 286.594360,215.111938 
	C288.806366,220.743286 294.014893,215.588272 298.372437,218.513565 
	C290.233673,219.693283 283.441895,221.099503 282.685211,229.949982 
	C281.580200,229.600616 280.788727,229.302750 279.929993,228.755798 
	C279.237396,228.661667 278.612030,228.816605 277.567505,228.969467 
	C266.747833,228.017456 256.347382,227.067535 245.568588,226.164093 
	C243.153458,226.499573 241.116638,226.788589 239.079834,227.077576 
z"/>
<path fill="#F79E05" opacity="1.000000" stroke="none" 
	d="
M279.215790,205.651367 
	C264.424805,204.898422 250.350861,201.314178 237.280731,193.220978 
	C229.427399,189.603470 224.289963,183.699142 220.470306,176.196594 
	C220.908325,175.239868 221.524445,174.619522 221.412338,174.188660 
	C220.127167,169.249512 222.369354,167.596481 227.153992,168.292023 
	C228.542145,169.399750 229.748596,170.238495 231.015915,171.382690 
	C231.718796,172.460571 232.360825,173.233032 233.080231,174.301117 
	C233.752686,175.098572 234.347733,175.600403 235.098541,176.357056 
	C235.848328,177.408813 236.442368,178.205734 237.191376,179.285278 
	C238.542435,180.409225 239.738541,181.250565 240.960052,182.320801 
	C240.985458,182.549713 241.059753,183.004333 241.115845,183.326233 
	C242.112350,184.418900 243.052765,185.189651 244.215057,186.214294 
	C246.615387,187.679413 248.793854,188.890671 251.202026,190.341187 
	C258.643402,194.604767 265.855103,198.629074 273.066772,202.653381 
	C274.197876,202.997818 275.328979,203.342239 276.966736,204.036652 
	C277.996887,204.557358 278.520416,204.728043 279.043945,204.898727 
	C279.081909,205.066025 279.119873,205.233322 279.215790,205.651367 
z"/>
<path fill="#FAB713" opacity="1.000000" stroke="none" 
	d="
M194.276917,156.873260 
	C196.406052,150.423492 198.860138,143.875931 201.977600,137.127136 
	C204.101715,136.296158 205.510193,135.451904 207.033920,135.080658 
	C210.369308,134.267990 213.763168,133.695297 217.042511,133.421738 
	C216.200348,137.616211 214.522324,141.509842 218.127106,145.142395 
	C218.149490,145.618179 218.143753,145.809006 218.138016,145.999817 
	C217.094040,147.833847 215.718063,149.561478 215.087692,151.528091 
	C214.246185,154.153381 213.983704,156.964249 213.472519,159.695419 
	C213.015015,159.680878 212.557495,159.666336 212.099991,159.651810 
	C210.912384,157.251480 209.724792,154.851166 208.390915,152.155212 
	C203.939423,155.093811 197.463486,150.001236 194.276917,156.873260 
z"/>
<path fill="#EF9103" opacity="1.000000" stroke="none" 
	d="
M226.972321,168.023071 
	C222.369354,167.596481 220.127167,169.249512 221.412338,174.188660 
	C221.524445,174.619522 220.908325,175.239868 220.332108,175.881714 
	C215.871414,168.116898 214.122101,160.009964 218.214478,151.325562 
	C219.890533,153.441269 221.015106,155.624573 222.147278,158.177460 
	C223.760681,161.705719 225.366501,164.864395 226.972321,168.023071 
z"/>
<path fill="#999D36" opacity="1.000000" stroke="none" 
	d="
M222.139679,157.807861 
	C221.015106,155.624573 219.890533,153.441269 218.505615,151.049393 
	C218.238785,149.497147 218.232315,148.153473 218.181946,146.404816 
	C218.143753,145.809006 218.149490,145.618179 218.159302,144.786850 
	C218.264297,143.682327 218.365189,143.218307 218.604736,142.483459 
	C221.910446,138.654236 225.077484,135.095856 228.352585,131.901840 
	C225.457382,139.726959 222.912277,147.242325 224.512665,155.525833 
	C224.625885,156.111816 222.971924,157.039215 222.139679,157.807861 
z"/>
<path fill="#FAB713" opacity="1.000000" stroke="none" 
	d="
M192.882263,169.817963 
	C192.432816,169.267822 192.005692,168.370071 191.749146,167.240982 
	C192.248016,167.829880 192.576294,168.650101 192.882263,169.817963 
z"/>
<path fill="#F79E05" opacity="1.000000" stroke="none" 
	d="
M349.029144,142.030594 
	C350.264282,147.487762 351.698944,152.909134 352.686371,158.410751 
	C354.064392,166.088531 352.552917,173.153732 346.716492,179.681870 
	C348.483429,150.963638 332.713135,134.637009 308.373352,123.611115 
	C307.995453,119.310486 310.262543,117.584824 313.742126,118.086014 
	C318.406921,118.757904 322.987152,120.016838 327.941254,121.171555 
	C328.759644,121.323730 329.240417,121.328087 329.721222,121.332451 
	C329.721222,121.332451 329.982605,121.367401 330.172028,121.787949 
	C330.935791,122.454124 331.510162,122.699768 332.084503,122.945404 
	C332.667542,123.397194 333.250580,123.848976 334.014893,124.886765 
	C335.150482,125.948547 336.104767,126.424324 337.059082,126.900093 
	C337.059082,126.900093 337.064880,126.930542 337.126312,127.240891 
	C337.801270,128.019455 338.414764,128.487686 339.028290,128.955917 
	C339.028290,128.955917 339.013702,128.982468 339.013489,129.338898 
	C340.384827,131.086838 341.756378,132.478348 343.127899,133.869873 
	C343.127899,133.869873 343.001190,133.992355 343.092651,134.273605 
	C344.150146,135.350143 345.116211,136.145432 346.082245,136.940720 
	C346.400421,137.058197 346.675171,137.240952 347.041626,137.920624 
	C347.194946,138.529327 347.213196,138.706360 347.278625,139.103745 
	C347.455780,139.609467 347.661377,139.821579 347.964874,139.986298 
	C347.987183,140.012192 348.021118,140.071487 348.074951,140.265930 
	C348.246521,140.710068 348.420288,140.911377 348.745239,141.305725 
	C348.903290,141.708282 348.966217,141.869431 349.029144,142.030594 
z"/>
<path fill="#6D8837" opacity="1.000000" stroke="none" 
	d="
M286.491882,119.892250 
	C285.609589,119.568436 284.727325,119.244614 283.306335,118.723259 
	C281.846039,118.022728 280.924469,117.519737 280.080322,116.673164 
	C281.569702,115.022865 282.780457,113.010597 284.430786,112.540016 
	C289.648682,111.052155 295.071075,110.294121 300.326996,108.919731 
	C302.042877,108.471046 303.490936,106.998230 305.061493,105.993790 
	C312.925873,110.501846 320.790253,115.009903 328.382996,119.815880 
	C322.044922,116.411125 315.895996,114.131241 308.420776,115.906685 
	C302.578949,117.294159 296.399963,117.220917 290.398560,118.008430 
	C289.037354,118.187042 287.791077,119.241135 286.491882,119.892250 
z"/>
<path fill="#7E9331" opacity="1.000000" stroke="none" 
	d="
M305.048279,105.965088 
	C303.490936,106.998230 302.042877,108.471046 300.326996,108.919731 
	C295.071075,110.294121 289.648682,111.052155 284.430786,112.540016 
	C282.780457,113.010597 281.569702,115.022865 279.684875,116.690331 
	C276.473297,116.365204 273.734619,115.679321 270.995972,114.993446 
	C270.554291,110.365654 272.979797,108.646400 277.286987,107.887772 
	C281.365845,107.169380 285.282837,105.532013 289.378906,103.025391 
	C284.126465,101.816452 278.874054,100.607513 273.343384,99.150574 
	C279.517365,99.769058 285.969635,100.635551 292.982819,101.933746 
	C294.385345,102.541328 295.226959,102.717201 296.068542,102.893074 
	C296.236237,102.914726 296.403961,102.936378 296.990662,103.198395 
	C297.680817,103.637230 297.983124,103.757355 298.316589,103.799133 
	C298.316589,103.799133 298.685364,103.784393 299.065369,104.069031 
	C300.012634,104.515129 300.579865,104.676598 301.147125,104.838058 
	C301.888580,104.946381 302.630035,105.054703 303.859070,105.380508 
	C304.532562,105.754257 304.741089,105.869644 304.972290,105.944145 
	C304.972290,105.944145 305.035034,105.936386 305.048279,105.965088 
z"/>
<path fill="#DC9A0F" opacity="1.000000" stroke="none" 
	d="
M286.889893,120.106316 
	C287.791077,119.241135 289.037354,118.187042 290.398560,118.008430 
	C296.399963,117.220917 302.578949,117.294159 308.420776,115.906685 
	C315.895996,114.131241 322.044922,116.411125 328.467621,120.146515 
	C328.954041,120.318771 329.084167,120.458313 328.888794,120.807022 
	C328.243439,121.018692 327.923553,121.021210 327.603668,121.023727 
	C322.987152,120.016838 318.406921,118.757904 313.742126,118.086014 
	C310.262543,117.584824 307.995453,119.310486 308.001373,123.567810 
	C307.284027,123.931358 306.573486,123.903435 305.513580,123.812134 
	C300.998718,122.845016 296.841583,121.899719 292.663696,121.057198 
	C290.894196,120.700363 289.081146,120.559441 286.889893,120.106316 
z"/>
<path fill="#BF8F26" opacity="1.000000" stroke="none" 
	d="
M343.127228,133.530334 
	C341.756378,132.478348 340.384827,131.086838 339.028381,129.336975 
	C340.404480,130.382706 341.765503,131.786774 343.127228,133.530334 
z"/>
<path fill="#BF8F26" opacity="1.000000" stroke="none" 
	d="
M346.028656,136.618469 
	C345.116211,136.145432 344.150146,135.350143 343.158630,134.215759 
	C344.080444,134.683197 345.027740,135.489700 346.028656,136.618469 
z"/>
<path fill="#BF8F26" opacity="1.000000" stroke="none" 
	d="
M336.935730,126.612946 
	C336.104767,126.424324 335.150482,125.948547 334.162231,125.125114 
	C335.022980,125.293571 335.917694,125.809692 336.935730,126.612946 
z"/>
<path fill="#6D8837" opacity="1.000000" stroke="none" 
	d="
M349.259552,142.133759 
	C348.966217,141.869431 348.903290,141.708282 348.794128,141.094849 
	C348.747833,140.642548 348.766724,140.209229 348.871887,140.114014 
	C348.977081,140.018799 349.187927,139.828918 349.187927,139.828918 
	C349.702881,140.708878 350.217865,141.588821 350.732635,142.777740 
	C350.318298,142.803436 349.904114,142.520172 349.259552,142.133759 
z"/>
<path fill="#BF8F26" opacity="1.000000" stroke="none" 
	d="
M338.972778,128.663116 
	C338.414764,128.487686 337.801270,128.019455 337.141449,127.244232 
	C337.702545,127.414925 338.309906,127.892624 338.972778,128.663116 
z"/>
<path fill="#6D8837" opacity="1.000000" stroke="none" 
	d="
M347.231445,138.883392 
	C347.213196,138.706360 347.194946,138.529327 347.224884,138.089539 
	C347.848419,138.308289 348.423828,138.789780 349.093567,139.550110 
	C349.187927,139.828918 348.977081,140.018799 348.690094,140.055878 
	C348.403107,140.092941 348.021118,140.071487 348.021118,140.071487 
	C348.021118,140.071487 347.987183,140.012192 347.912537,139.768723 
	C347.711639,139.239609 347.509491,139.025665 347.231445,138.883392 
z"/>
<path fill="#6D8837" opacity="1.000000" stroke="none" 
	d="
M295.816650,102.692001 
	C295.226959,102.717201 294.385345,102.541328 293.315826,102.128922 
	C293.913513,102.091896 294.739105,102.291405 295.816650,102.692001 
z"/>
<path fill="#BF8F26" opacity="1.000000" stroke="none" 
	d="
M331.958557,122.646500 
	C331.510162,122.699768 330.935791,122.454124 330.243164,121.898964 
	C330.694122,121.842155 331.263397,122.094872 331.958557,122.646500 
z"/>
<path fill="#6D8837" opacity="1.000000" stroke="none" 
	d="
M300.929199,104.635643 
	C300.579865,104.676598 300.012634,104.515129 299.238037,104.134117 
	C299.590851,104.087448 300.151062,104.260338 300.929199,104.635643 
z"/>
<path fill="#6D8837" opacity="1.000000" stroke="none" 
	d="
M298.143555,103.621994 
	C297.983124,103.757355 297.680817,103.637230 297.233521,103.271423 
	C297.392914,103.134232 297.697296,103.247810 298.143555,103.621994 
z"/>
<path fill="#BF8F26" opacity="1.000000" stroke="none" 
	d="
M327.941254,121.171547 
	C327.923553,121.021210 328.243439,121.018692 329.044922,121.046913 
	C329.526581,121.077652 329.694733,121.152206 329.707977,121.242325 
	C329.240417,121.328087 328.759644,121.323730 327.941254,121.171547 
z"/>
<path fill="#6D8837" opacity="1.000000" stroke="none" 
	d="
M304.872742,105.784103 
	C304.741089,105.869644 304.532562,105.754257 304.222778,105.472946 
	C304.366333,105.335617 304.591125,105.427666 304.872742,105.784103 
z"/>
<path fill="#C8AC1B" opacity="1.000000" stroke="none" 
	d="
M270.622925,114.954956 
	C273.734619,115.679321 276.473297,116.365204 279.607422,117.033913 
	C280.924469,117.519737 281.846039,118.022728 283.021393,118.723480 
	C278.926086,120.723305 274.577057,122.525368 270.104980,124.653366 
	C263.077972,126.536438 259.168030,131.457489 256.115784,137.695312 
	C256.126343,138.060272 256.062408,138.081573 255.849777,138.213959 
	C255.409958,138.540222 255.233459,138.772614 255.107651,139.043503 
	C255.107651,139.043503 255.062653,139.504761 255.047638,139.735321 
	C253.920822,142.682297 252.809021,145.398712 251.680481,148.411804 
	C248.379501,155.152588 249.191299,161.772949 250.981918,168.364746 
	C251.799667,171.375183 253.029190,174.273773 253.761047,177.758835 
	C247.963135,181.838120 247.792435,182.651489 250.972321,190.101913 
	C248.793854,188.890671 246.615387,187.679413 244.148041,185.896683 
	C242.926010,184.551590 241.992889,183.777954 241.059753,183.004333 
	C241.059753,183.004333 240.985458,182.549713 240.904968,181.971573 
	C239.561798,180.596497 238.299103,179.799576 237.036407,179.002655 
	C236.442368,178.205734 235.848328,177.408813 235.035461,176.049881 
	C234.212036,174.993744 233.607437,174.499619 233.002838,174.005493 
	C232.360825,173.233032 231.718796,172.460571 231.048569,171.011505 
	C233.746796,164.755203 236.555649,159.213867 239.177307,153.585342 
	C242.013138,147.497025 245.875671,141.554199 247.088425,135.132095 
	C248.417633,128.093292 251.723404,122.533569 255.717728,117.187973 
	C257.507355,114.792915 257.244720,113.150299 255.995255,111.040253 
	C260.746796,112.332329 265.498322,113.624405 270.622925,114.954956 
z"/>
<path fill="#D1B019" opacity="1.000000" stroke="none" 
	d="
M255.597336,111.008675 
	C257.244720,113.150299 257.507355,114.792915 255.717728,117.187973 
	C251.723404,122.533569 248.417633,128.093292 247.088425,135.132095 
	C245.875671,141.554199 242.013138,147.497025 239.177307,153.585342 
	C236.555649,159.213867 233.746796,164.755203 230.987717,170.706085 
	C229.748596,170.238495 228.542145,169.399750 227.153992,168.292023 
	C225.366501,164.864395 223.760681,161.705719 222.147278,158.177460 
	C222.971924,157.039215 224.625885,156.111816 224.512665,155.525833 
	C222.912277,147.242325 225.457382,139.726959 228.385986,131.843674 
	C228.311325,131.421143 228.445847,131.424316 228.763428,131.344788 
	C229.340897,130.480972 229.600784,129.696671 229.896515,128.917511 
	C229.932343,128.922638 229.878479,128.874222 230.209976,128.800507 
	C230.926559,127.756554 231.311661,126.786316 231.779663,125.874588 
	C231.862549,125.933105 231.721161,125.787537 231.987610,125.648514 
	C232.413681,124.960953 232.573303,124.412415 232.742554,123.847397 
	C232.752151,123.830925 232.770889,123.797729 233.025635,123.667816 
	C233.505005,123.037254 233.729614,122.536606 234.097412,121.785194 
	C234.764557,120.972443 235.288498,120.410454 236.046265,119.716293 
	C236.421768,119.263565 236.563446,118.943001 236.846985,118.328804 
	C238.737152,116.021530 240.485474,114.007889 242.429672,111.948441 
	C242.883194,111.750244 243.003922,111.524551 243.061462,111.194939 
	C243.135178,111.164314 243.201416,111.019035 243.479858,111.027611 
	C244.127060,110.982758 244.495804,110.929321 245.122772,110.771820 
	C245.645401,110.195473 245.909821,109.723206 246.206284,109.211914 
	C246.238327,109.172890 246.324646,109.120483 246.324646,109.120483 
	C249.282898,109.739357 252.241165,110.358223 255.597336,111.008675 
z"/>
<path fill="#0C7948" opacity="1.000000" stroke="none" 
	d="
M242.233795,111.994247 
	C240.485474,114.007889 238.737152,116.021530 236.615280,118.463547 
	C236.098618,119.210770 235.955521,119.529617 235.812439,119.848465 
	C235.288498,120.410454 234.764557,120.972443 233.839142,121.904625 
	C233.215424,122.782455 232.993164,123.290092 232.770889,123.797729 
	C232.770889,123.797729 232.752151,123.830925 232.503510,124.007164 
	C232.076965,124.718117 231.899063,125.252831 231.721161,125.787537 
	C231.721161,125.787537 231.862549,125.933105 231.517181,126.035629 
	C230.740692,127.050179 230.309586,127.962204 229.878479,128.874222 
	C229.878479,128.874222 229.932343,128.922638 229.636017,129.076065 
	C229.041733,129.961090 228.743774,130.692703 228.445831,131.424316 
	C228.445847,131.424316 228.311325,131.421143 228.277924,131.479309 
	C225.077484,135.095856 221.910446,138.654236 218.606506,142.047806 
	C218.597885,139.444229 218.078735,136.731308 218.973892,134.617294 
	C221.841125,127.846191 225.232101,121.296867 228.470612,114.662582 
	C228.520294,114.663231 228.541428,114.566124 228.541428,114.566124 
	C233.804962,111.105095 239.068497,107.644073 245.014404,104.032516 
	C247.423782,103.983383 249.150787,104.084785 250.877777,104.186188 
	C250.746643,104.295380 250.615494,104.404572 250.083817,104.586594 
	C249.469727,104.760818 249.357452,104.929810 249.346481,105.166397 
	C248.409012,106.015068 247.471542,106.863739 245.953171,107.941315 
	C244.648666,109.119820 243.925049,110.069435 243.201416,111.019043 
	C243.201416,111.019035 243.135178,111.164314 242.892120,111.172539 
	C242.510620,111.451920 242.372208,111.723083 242.233795,111.994247 
z"/>
<path fill="#408A49" opacity="1.000000" stroke="none" 
	d="
M251.148132,104.167679 
	C249.150787,104.084785 247.423782,103.983383 245.330658,103.873848 
	C245.922379,103.113075 246.880234,102.360435 248.012878,101.351051 
	C249.003311,101.180969 249.818939,101.267639 250.843552,101.205826 
	C252.066345,101.163155 253.080154,101.268959 255.150742,101.485046 
	C253.351654,102.769249 252.385071,103.459206 251.148132,104.167679 
z"/>
<path fill="#408A49" opacity="1.000000" stroke="none" 
	d="
M243.479858,111.027618 
	C243.925049,110.069435 244.648666,109.119820 245.694275,108.121674 
	C246.056427,108.250717 246.096588,108.428299 246.230698,108.863174 
	C246.324646,109.120483 246.238327,109.172890 245.941010,109.299683 
	C245.383972,109.909615 245.124283,110.392754 244.864563,110.875893 
	C244.495804,110.929321 244.127060,110.982758 243.479858,111.027618 
z"/>
<path fill="#7E9331" opacity="1.000000" stroke="none" 
	d="
M268.266083,98.325089 
	C267.952942,98.263367 267.764313,98.086113 267.575684,97.908875 
	C267.682465,97.809914 267.789276,97.710953 267.896057,97.612000 
	C268.060913,97.811188 268.225769,98.010376 268.266083,98.325089 
z"/>
<path fill="#408A49" opacity="1.000000" stroke="none" 
	d="
M249.487610,105.128632 
	C249.357452,104.929810 249.469727,104.760818 249.840637,104.666527 
	C249.943695,104.873528 249.820618,105.012611 249.487610,105.128632 
z"/>
<path fill="#02994A" opacity="1.000000" stroke="none" 
	d="
M216.555389,351.896576 
	C214.472626,350.661041 212.813736,349.471497 211.162048,348.272095 
	C209.914719,347.366333 208.676544,346.447937 207.206085,345.279175 
	C208.116425,343.471832 208.992676,340.903564 210.435394,340.531433 
	C221.130981,337.772583 231.890030,335.138397 243.137756,336.701141 
	C244.582626,336.901917 246.167282,336.096710 248.250397,335.431061 
	C256.586121,336.532654 264.041443,335.583405 271.161591,332.122467 
	C274.867157,331.107758 278.572723,330.093079 282.897034,329.192322 
	C285.409393,329.584473 287.302979,329.862640 289.196564,330.140808 
	C289.196564,330.140808 289.131958,330.604950 288.819519,330.958130 
	C287.987030,331.867676 287.466980,332.424072 286.946930,332.980499 
	C286.680084,333.131165 286.445374,333.321472 286.104706,333.731140 
	C282.762207,336.069550 279.557831,338.228241 276.170349,340.669556 
	C267.755554,344.419067 259.675018,348.329987 251.240479,351.201080 
	C245.343887,353.208252 238.963257,353.793396 232.360504,355.013977 
	C226.942245,353.988953 221.962296,352.963654 216.555389,351.896576 
z"/>
<path fill="#1FA65E" opacity="1.000000" stroke="none" 
	d="
M200.327484,319.145935 
	C195.131195,315.525879 190.267258,312.035309 185.439117,308.042328 
	C190.118210,307.683350 194.877014,307.230194 199.379456,308.101593 
	C207.335953,309.641449 215.136337,311.987915 223.247406,314.248962 
	C229.986450,317.027527 236.424789,319.713013 243.001129,322.002106 
	C245.635117,322.918976 248.444687,323.068420 246.537552,326.991577 
	C232.740936,326.991577 219.550552,326.062042 206.974762,321.073364 
	C206.974762,321.073364 206.954285,321.054535 206.738556,320.833801 
	C205.963791,320.432526 205.404739,320.251953 204.845703,320.071381 
	C203.450424,319.806061 202.055130,319.540741 200.327484,319.145935 
z"/>
<path fill="#2DA35D" opacity="1.000000" stroke="none" 
	d="
M207.071777,321.401978 
	C219.550552,326.062042 232.740936,326.991577 246.951416,326.993530 
	C250.231750,326.670319 252.632538,326.346497 255.033325,326.022644 
	C253.866196,327.288971 252.699081,328.555267 250.981705,330.418610 
	C257.460358,333.445984 263.999634,331.270355 270.677551,332.086487 
	C264.041443,335.583405 256.586121,336.532654 248.401825,335.095825 
	C234.392258,333.745331 221.827911,328.905243 209.403229,323.623718 
	C208.545212,323.258972 207.908447,322.373718 207.071777,321.401978 
z"/>
<path fill="#2DA35D" opacity="1.000000" stroke="none" 
	d="
M205.066254,320.272034 
	C205.404739,320.251953 205.963791,320.432526 206.734406,320.820557 
	C206.392914,320.842896 205.839859,320.657776 205.066254,320.272034 
z"/>
<path fill="#FAA209" opacity="1.000000" stroke="none" 
	d="
M329.235748,219.934586 
	C334.237152,222.915207 339.238586,225.895828 344.666260,229.288483 
	C347.738708,232.794434 350.384827,235.888306 352.832397,239.265778 
	C348.195709,241.793671 345.151794,244.653046 345.916687,250.392151 
	C346.335876,253.537384 345.524017,256.857117 345.189362,260.090088 
	C344.615326,265.635529 344.022766,271.179993 343.323425,276.710419 
	C343.222260,277.510223 342.485535,278.229645 341.887146,278.681030 
	C337.865570,271.168701 332.467041,265.526947 325.001709,261.570587 
	C325.935852,254.153336 320.388275,251.150635 316.359283,247.274506 
	C314.041260,245.044388 311.461090,243.086716 309.414612,241.012299 
	C319.392578,242.390884 319.248840,242.393021 319.100159,232.372421 
	C319.057373,229.487778 320.103577,226.586975 320.650482,223.693588 
	C320.974396,223.792206 321.298309,223.890839 321.622223,223.989456 
	C321.324860,222.292206 321.027496,220.594955 320.730103,218.897705 
	C321.264221,218.790512 321.798309,218.683319 322.332397,218.576126 
	C322.914734,219.520538 323.366852,220.584198 324.102966,221.387741 
	C326.652222,224.170609 327.587219,222.695892 327.901794,219.837967 
	C327.901794,219.837967 327.968506,219.863190 328.279236,219.902466 
	C328.805237,219.939346 329.020508,219.936966 329.235748,219.934586 
z"/>
<path fill="#F2930C" opacity="1.000000" stroke="none" 
	d="
M368.062408,277.024994 
	C368.055511,279.382050 368.048615,281.739136 367.810730,284.845367 
	C365.822479,294.357483 363.546722,302.925781 358.314026,310.391174 
	C356.540375,312.921661 354.783661,315.464020 352.682648,318.068176 
	C349.899841,320.418854 347.453552,322.702362 344.658508,325.052002 
	C339.192627,327.411774 334.075470,329.705353 329.134491,331.712219 
	C331.772186,328.116547 334.515472,324.976349 336.624298,321.456116 
	C339.294006,316.999664 342.676514,312.448303 343.530273,307.550659 
	C344.751282,300.546509 343.960144,293.191620 344.306396,286.177429 
	C346.200195,287.943695 347.815826,289.519073 349.994995,291.643890 
	C350.591461,289.592041 350.798096,288.809601 351.045807,288.040405 
	C352.899017,282.285858 353.946350,276.081085 361.036682,273.806061 
	C362.163361,273.444580 362.956055,270.869934 363.211731,269.211884 
	C363.731812,265.839203 363.779816,262.393707 364.244873,259.275177 
	C365.665710,265.389740 366.864044,271.207367 368.062408,277.024994 
z"/>
<path fill="#FBAD0C" opacity="1.000000" stroke="none" 
	d="
M327.622070,219.684006 
	C327.587219,222.695892 326.652222,224.170609 324.102966,221.387741 
	C323.366852,220.584198 322.914734,219.520538 322.332397,218.576126 
	C321.798309,218.683319 321.264221,218.790512 320.730103,218.897705 
	C321.027496,220.594955 321.324860,222.292206 321.622223,223.989456 
	C321.298309,223.890839 320.974396,223.792206 320.650482,223.693588 
	C320.103577,226.586975 319.057373,229.487778 319.100159,232.372421 
	C319.248840,242.393021 319.392578,242.390884 309.063446,240.934509 
	C306.337708,239.997940 304.383331,239.134476 302.419067,238.294098 
	C295.947571,235.525391 289.472473,232.765045 282.998779,230.001465 
	C283.441895,221.099503 290.233673,219.693283 298.372437,218.513565 
	C294.014893,215.588272 288.806366,220.743286 286.594360,215.111938 
	C289.329742,213.122177 292.011627,211.171341 294.980194,208.965454 
	C295.970093,208.805283 296.673279,208.900177 297.921692,209.267532 
	C298.795593,209.670700 299.124329,209.801437 299.453033,209.932175 
	C299.453033,209.932175 299.672302,209.805878 299.878632,210.130188 
	C300.808197,210.537994 301.531433,210.621506 302.254669,210.705017 
	C305.938416,211.513794 309.622162,212.322571 313.883484,213.373779 
	C314.705444,213.766403 314.969971,213.859268 315.254639,213.894821 
	C315.254639,213.894821 315.640533,213.921158 315.807251,214.019775 
	C317.128326,214.737305 318.282715,215.356232 319.814178,215.967865 
	C322.574982,217.150406 324.958679,218.340225 327.622070,219.684006 
z"/>
<path fill="#D27A15" opacity="1.000000" stroke="none" 
	d="
M353.019165,318.000946 
	C354.783661,315.464020 356.540375,312.921661 358.314026,310.391174 
	C363.546722,302.925781 365.822479,294.357483 367.811310,285.287048 
	C368.555969,285.362793 369.559692,285.830444 369.510406,286.116974 
	C368.246552,293.464508 372.344330,300.151733 372.310120,307.057434 
	C372.286163,311.894745 368.722778,316.727722 366.675842,321.535278 
	C365.852905,323.468018 364.858002,325.327545 363.866180,327.596863 
	C363.511108,328.409790 363.231232,328.846252 362.861328,329.528748 
	C362.294098,330.031525 361.816864,330.288269 361.147369,330.738464 
	C360.173737,331.216461 359.392334,331.500977 358.293152,331.560730 
	C355.033203,328.070557 355.530762,324.814972 357.842346,321.228577 
	C356.417542,321.873199 354.992767,322.517853 353.488068,323.198639 
	C353.303528,321.153015 353.161377,319.576996 353.019165,318.000946 
z"/>
<path fill="#D27A15" opacity="1.000000" stroke="none" 
	d="
M368.278564,276.702209 
	C366.864044,271.207367 365.665710,265.389740 364.220001,258.902344 
	C360.325439,251.815750 356.678223,245.398972 353.031006,238.982178 
	C350.384827,235.888306 347.738708,232.794434 345.003662,229.371826 
	C350.720581,233.856720 357.120514,238.129135 362.149536,243.650284 
	C366.392059,248.307968 369.135193,254.361557 372.363495,259.901276 
	C374.216644,263.081238 374.025909,265.792450 370.972168,268.729248 
	C369.269104,270.367126 369.264648,273.771240 368.278564,276.702209 
z"/>
<path fill="#FBAD0C" opacity="1.000000" stroke="none" 
	d="
M329.083435,219.804153 
	C329.020508,219.936966 328.805237,219.939346 328.267334,219.936066 
	C328.273468,219.844864 328.602295,219.759293 329.083435,219.804153 
z"/>
<path fill="#2DA35D" opacity="1.000000" stroke="none" 
	d="
M223.002075,313.996765 
	C215.136337,311.987915 207.335953,309.641449 199.379456,308.101593 
	C194.877014,307.230194 190.118210,307.683350 185.210495,307.800781 
	C180.344650,302.597656 175.743195,297.133728 171.444092,291.354675 
	C174.582474,292.294250 177.306732,294.027039 180.273911,294.720398 
	C192.837830,297.656342 205.666534,299.567627 217.508026,305.133087 
	C218.456772,305.578979 219.900131,304.972534 221.113617,304.855133 
	C223.594238,306.368805 226.074860,307.882446 228.792145,309.629456 
	C229.025726,310.330261 229.022644,310.797699 228.730133,311.835358 
	C226.627823,312.936005 224.814941,313.466370 223.002075,313.996765 
z"/>
<path fill="#3EA059" opacity="1.000000" stroke="none" 
	d="
M220.858398,304.629028 
	C219.900131,304.972534 218.456772,305.578979 217.508026,305.133087 
	C205.666534,299.567627 192.837830,297.656342 180.273911,294.720398 
	C177.306732,294.027039 174.582474,292.294250 171.377045,291.015747 
	C171.007645,290.991913 170.942078,290.581665 170.812302,290.146179 
	C170.430176,289.483917 170.177811,289.257172 169.925446,289.030426 
	C168.348236,285.596069 166.771027,282.161682 165.154037,278.369629 
	C170.915955,286.622681 181.103134,285.089203 189.209412,288.363861 
	C189.575287,288.511627 190.260681,287.868500 190.895233,287.300476 
	C197.029800,290.660034 203.066360,294.312897 209.457016,297.988342 
	C213.408463,300.141541 217.005814,302.272217 220.858398,304.629028 
z"/>
<path fill="#3EA059" opacity="1.000000" stroke="none" 
	d="
M163.911652,273.426086 
	C164.054810,273.618683 164.207001,274.115814 164.206177,274.777649 
	C164.009018,274.538452 163.964844,274.134583 163.911652,273.426086 
z"/>
<path fill="#2DA35D" opacity="1.000000" stroke="none" 
	d="
M170.061066,289.244934 
	C170.177811,289.257172 170.430176,289.483917 170.802551,289.938660 
	C170.680603,289.930908 170.438644,289.695190 170.061066,289.244934 
z"/>
<path fill="#269F5A" opacity="1.000000" stroke="none" 
	d="
M223.247406,314.248932 
	C224.814941,313.466370 226.627823,312.936005 228.729034,312.185272 
	C241.836899,315.574005 255.713867,315.533081 267.698334,322.024597 
	C267.678009,322.822449 267.657684,323.620300 267.637329,324.418182 
	C263.725281,324.950775 259.813263,325.483398 255.467255,326.019348 
	C252.632538,326.346497 250.231750,326.670319 247.417114,326.992188 
	C248.444687,323.068420 245.635117,322.918976 243.001129,322.002106 
	C236.424789,319.713013 229.986450,317.027527 223.247406,314.248932 
z"/>
<path fill="#4D9E52" opacity="1.000000" stroke="none" 
	d="
M281.757080,319.277374 
	C284.333923,318.676819 286.663849,318.311249 289.650208,318.187592 
	C291.832397,319.265564 293.358124,320.101654 294.694092,321.209259 
	C291.761200,323.050842 289.018066,324.620911 286.274933,326.191010 
	C282.114197,326.768188 277.953461,327.345367 273.379913,327.979828 
	C273.843445,322.098755 278.400452,321.544189 281.757080,319.277374 
z"/>
<path fill="#0C7948" opacity="1.000000" stroke="none" 
	d="
M286.064331,326.417419 
	C289.018066,324.620911 291.761200,323.050842 294.957306,321.067261 
	C295.932526,320.367096 296.454773,320.080444 297.186462,319.732300 
	C297.661346,319.512695 297.831207,319.283691 298.048218,318.772156 
	C298.464142,318.360962 298.737305,318.161407 299.010437,317.961823 
	C297.786285,320.417206 296.562164,322.872620 294.939667,325.757202 
	C294.307434,326.443176 294.073578,326.699921 293.839691,326.956696 
	C293.584747,327.089203 293.367432,327.267578 293.071472,327.667053 
	C291.876221,328.498993 290.797241,329.155731 289.457428,329.976624 
	C287.302979,329.862640 285.409393,329.584473 283.265076,329.117035 
	C283.960815,328.166443 284.907257,327.405121 286.064331,326.417419 
z"/>
<path fill="#F79E05" opacity="1.000000" stroke="none" 
	d="
M282.685211,229.949982 
	C289.472473,232.765045 295.947571,235.525391 302.419067,238.294098 
	C304.383331,239.134476 306.337708,239.997940 308.647766,240.928619 
	C311.461090,243.086716 314.041260,245.044388 316.359283,247.274506 
	C320.388275,251.150635 325.935852,254.153336 324.665436,261.412506 
	C318.527496,258.709106 313.102661,260.013550 307.838348,263.135681 
	C306.546387,262.372833 305.254395,261.609985 303.666382,260.726379 
	C302.443878,259.820984 301.517365,259.036438 300.325012,258.095215 
	C299.648773,257.592499 299.238403,257.246399 298.596771,256.763550 
	C296.570099,255.355682 294.774750,254.084534 292.663391,252.681870 
	C292.103638,252.371857 291.863770,252.188293 291.450806,251.858612 
	C290.812714,251.421814 290.351562,251.126022 289.652313,250.697632 
	C287.303101,249.300568 285.191986,248.036087 282.752319,246.653198 
	C281.568756,245.974197 280.713684,245.413589 279.563477,244.751923 
	C276.536346,243.362457 273.804321,242.074036 270.720703,240.689407 
	C263.935394,237.999161 257.501740,235.405121 250.672607,232.720825 
	C248.931274,231.664612 247.585449,230.698685 246.090775,229.088425 
	C245.943588,227.668594 245.945251,226.893097 245.946899,226.117615 
	C256.347382,227.067535 266.747833,228.017456 277.902649,228.980255 
	C279.103760,228.997040 279.550507,229.000961 279.997284,229.004868 
	C280.788727,229.302750 281.580200,229.600616 282.685211,229.949982 
z"/>
<path fill="#E3820D" opacity="1.000000" stroke="none" 
	d="
M344.028259,285.986511 
	C343.960144,293.191620 344.751282,300.546509 343.530273,307.550659 
	C342.676514,312.448303 339.294006,316.999664 336.624298,321.456116 
	C334.515472,324.976349 331.772186,328.116547 328.889221,331.935303 
	C325.838684,335.193695 323.356873,338.105988 320.537354,340.643005 
	C317.922333,342.996033 314.946594,344.948212 312.129700,347.076904 
	C316.047485,340.776184 320.405151,334.701080 323.779816,328.121796 
	C328.810211,318.314423 330.157257,307.744995 328.453857,296.387726 
	C329.869904,294.562347 331.126404,293.272858 332.052612,291.778625 
	C334.799133,287.347717 335.881165,281.546844 342.163391,280.296875 
	C342.885773,282.406372 343.457001,284.196442 344.028259,285.986511 
z"/>
<path fill="#EF9103" opacity="1.000000" stroke="none" 
	d="
M311.946411,347.369812 
	C314.946594,344.948212 317.922333,342.996033 320.537354,340.643005 
	C323.356873,338.105988 325.838684,335.193695 328.713074,332.222015 
	C334.075470,329.705353 339.192627,327.411774 344.659851,325.465790 
	C345.746826,330.909424 346.483734,336.005402 347.220642,341.101440 
	C343.840576,343.785278 340.460480,346.469147 336.910828,349.437958 
	C333.365692,350.950989 329.995209,352.193237 326.613312,353.403717 
	C321.985352,355.060211 317.411743,356.922302 312.683899,358.218903 
	C310.863800,358.718048 308.684326,357.906952 305.888885,357.610016 
	C308.310577,353.509216 310.036865,350.585999 311.946411,347.369812 
z"/>
<path fill="#EF9103" opacity="1.000000" stroke="none" 
	d="
M342.012268,279.977478 
	C335.881165,281.546844 334.799133,287.347717 332.052612,291.778625 
	C331.126404,293.272858 329.869904,294.562347 328.387817,295.976990 
	C326.012054,283.643066 317.690338,275.002350 310.233795,265.854797 
	C309.610870,265.090607 308.898804,264.399078 308.033264,263.404724 
	C313.102661,260.013550 318.527496,258.709106 324.666168,261.837158 
	C332.467041,265.526947 337.865570,271.168701 341.877502,278.928894 
	C342.023712,279.482025 342.012268,279.977478 342.012268,279.977478 
z"/>
<path fill="#6CA94E" opacity="1.000000" stroke="none" 
	d="
M321.354614,325.560669 
	C315.788727,325.148224 310.455170,324.594849 305.135040,323.933075 
	C301.717499,323.507965 300.242035,322.045349 302.449951,318.614166 
	C303.427765,317.094604 304.053833,315.348724 304.898834,313.356140 
	C306.719849,310.450195 308.481567,307.893677 310.732666,305.349976 
	C313.144348,306.606964 314.976990,308.029266 317.010437,309.052521 
	C319.895020,310.504028 322.927460,311.661682 325.896729,312.944885 
	C325.866699,313.387299 325.836700,313.829712 325.514038,314.710052 
	C325.118134,316.077698 325.014923,317.007385 324.911713,317.937103 
	C324.903229,318.396576 324.894775,318.856049 324.771118,319.761139 
	C324.529388,320.479553 324.573029,320.727234 324.786865,320.949768 
	C323.722137,322.424438 322.657379,323.899109 321.354614,325.560669 
z"/>
<path fill="#7E9331" opacity="1.000000" stroke="none" 
	d="
M326.148529,312.622925 
	C322.927460,311.661682 319.895020,310.504028 317.010437,309.052521 
	C314.976990,308.029266 313.144348,306.606964 310.939514,305.092896 
	C310.743225,304.125397 310.829407,303.427887 310.935120,302.378876 
	C312.872131,294.540802 314.789642,287.054199 316.980896,279.252563 
	C324.229187,285.256226 325.732483,293.872131 326.837555,302.522644 
	C327.244934,305.711426 326.577515,309.037506 326.148529,312.622925 
z"/>
<path fill="#7E9331" opacity="1.000000" stroke="none" 
	d="
M325.142212,317.703369 
	C325.014923,317.007385 325.118134,316.077698 325.474884,315.040405 
	C325.609833,315.778442 325.491272,316.624023 325.142212,317.703369 
z"/>
<path fill="#EF9103" opacity="1.000000" stroke="none" 
	d="
M305.333740,358.719177 
	C305.270325,359.045166 305.085175,359.241882 304.899994,359.438629 
	C304.795746,359.327271 304.691467,359.215912 304.587219,359.104553 
	C304.795471,358.933014 305.003693,358.761475 305.333740,358.719177 
z"/>
<path fill="#7E9331" opacity="1.000000" stroke="none" 
	d="
M324.824036,320.714478 
	C324.573029,320.727234 324.529388,320.479553 324.747192,320.105042 
	C324.838470,320.003326 324.861237,320.479187 324.824036,320.714478 
z"/>
<path fill="#6CA94E" opacity="1.000000" stroke="none" 
	d="
M299.222107,317.721252 
	C298.737305,318.161407 298.464142,318.360962 297.875610,318.885895 
	C297.337463,319.377014 297.143036,319.571167 296.977020,319.793793 
	C296.454773,320.080444 295.932526,320.367096 295.147034,320.795715 
	C293.358124,320.101654 291.832397,319.265564 290.042145,318.181000 
	C293.970154,315.415436 298.143677,312.864197 302.411377,310.481720 
	C302.625305,310.362244 303.655060,311.704041 304.211060,312.657593 
	C302.556030,314.460114 300.994904,315.970398 299.222107,317.721252 
z"/>
<path fill="#FBAD0C" opacity="1.000000" stroke="none" 
	d="
M217.133148,133.024597 
	C213.763168,133.695297 210.369308,134.267990 207.033920,135.080658 
	C205.510193,135.451904 204.101715,136.296158 202.257538,136.925018 
	C206.862473,130.638412 211.823715,124.330833 216.858612,118.082603 
	C218.087860,116.557137 219.558624,115.226295 221.050140,113.500992 
	C223.412048,112.271416 225.642151,111.346802 228.383347,110.210289 
	C228.383347,111.712715 228.383347,112.787811 228.462387,114.214508 
	C228.541428,114.566124 228.520294,114.663231 228.114349,114.550308 
	C226.503647,115.396187 224.797455,116.107857 224.181824,117.357002 
	C221.651794,122.490585 219.453491,127.787666 217.133148,133.024597 
z"/>
<path fill="#3EA059" opacity="1.000000" stroke="none" 
	d="
M294.068542,326.825195 
	C294.073578,326.699921 294.307434,326.443176 294.757690,326.040009 
	C294.748535,326.160309 294.522949,326.427002 294.068542,326.825195 
z"/>
<path fill="#2DA35D" opacity="1.000000" stroke="none" 
	d="
M287.246033,332.911316 
	C287.466980,332.424072 287.987030,331.867676 288.767090,331.186493 
	C288.533081,331.655151 288.039093,332.248627 287.246033,332.911316 
z"/>
<path fill="#FAB713" opacity="1.000000" stroke="none" 
	d="
M302.002655,210.506958 
	C301.531433,210.621506 300.808197,210.537994 299.994568,210.180878 
	C300.519653,210.041138 301.135162,210.175003 302.002655,210.506958 
z"/>
<path fill="#BF8F26" opacity="1.000000" stroke="none" 
	d="
M279.056580,204.636414 
	C278.520416,204.728043 277.996887,204.557358 277.295959,204.169403 
	C277.542847,203.937225 277.967163,203.922287 278.709961,203.878891 
	C279.042084,204.024979 279.055664,204.199539 279.056580,204.636414 
z"/>
<path fill="#FAB713" opacity="1.000000" stroke="none" 
	d="
M299.270996,209.725464 
	C299.124329,209.801437 298.795593,209.670700 298.262573,209.376282 
	C298.401825,209.314636 298.745392,209.416687 299.270996,209.725464 
z"/>
<path fill="#FAB713" opacity="1.000000" stroke="none" 
	d="
M315.109741,213.729126 
	C314.969971,213.859268 314.705444,213.766403 314.296753,213.489227 
	C314.436005,213.320908 314.713470,213.387985 315.109741,213.729126 
z"/>
<path fill="#BF8F26" opacity="1.000000" stroke="none" 
	d="
M251.202026,190.341187 
	C247.792435,182.651489 247.963135,181.838120 253.769669,178.153412 
	C255.433640,178.674698 256.778076,179.337143 258.413025,180.138123 
	C259.553436,181.486893 260.403381,182.697144 261.571533,184.008240 
	C263.179688,187.082291 266.099365,189.675476 263.648041,193.522705 
	C263.353760,193.984604 265.125916,196.075729 266.248596,197.060043 
	C268.317841,198.874207 270.616028,200.427200 272.942810,202.371201 
	C265.855103,198.629074 258.643402,194.604767 251.202026,190.341187 
z"/>
<path fill="#E3820D" opacity="1.000000" stroke="none" 
	d="
M347.542419,341.006470 
	C346.483734,336.005402 345.746826,330.909424 345.008606,325.399658 
	C347.453552,322.702362 349.899841,320.418854 352.682678,318.068176 
	C353.161377,319.576996 353.303528,321.153015 353.488068,323.198639 
	C354.992767,322.517853 356.417542,321.873199 357.842346,321.228577 
	C355.530762,324.814972 355.033203,328.070557 358.011169,331.697784 
	C356.665436,333.389343 354.272034,333.089661 353.784729,336.195221 
	C353.496552,338.031799 349.947083,339.356628 347.542419,341.006470 
z"/>
<path fill="#EF9103" opacity="1.000000" stroke="none" 
	d="
M245.568573,226.164093 
	C245.945251,226.893097 245.943588,227.668594 245.903763,228.837555 
	C243.790680,228.650131 241.715775,228.069229 239.360352,227.282959 
	C241.116638,226.788589 243.153458,226.499573 245.568573,226.164093 
z"/>
<path fill="#BF8F26" opacity="1.000000" stroke="none" 
	d="
M255.282166,138.910980 
	C255.233459,138.772614 255.409958,138.540222 255.816666,138.220245 
	C255.859802,138.356506 255.679962,138.584610 255.282166,138.910980 
z"/>
<path fill="#FBAD0C" opacity="1.000000" stroke="none" 
	d="
M279.929993,228.755798 
	C279.550507,229.000961 279.103760,228.997040 278.321838,228.982346 
	C278.612030,228.816605 279.237396,228.661667 279.929993,228.755798 
z"/>
<path fill="#D1B019" opacity="1.000000" stroke="none" 
	d="
M237.191376,179.285278 
	C238.299103,179.799576 239.561798,180.596497 240.879578,181.742661 
	C239.738541,181.250565 238.542435,180.409225 237.191376,179.285278 
z"/>
<path fill="#D1B019" opacity="1.000000" stroke="none" 
	d="
M241.115845,183.326233 
	C241.992889,183.777954 242.926010,184.551590 243.926163,185.642822 
	C243.052765,185.189651 242.112350,184.418900 241.115845,183.326233 
z"/>
<path fill="#D1B019" opacity="1.000000" stroke="none" 
	d="
M233.080231,174.301117 
	C233.607437,174.499619 234.212036,174.993744 234.879700,175.795044 
	C234.347733,175.600403 233.752686,175.098572 233.080231,174.301117 
z"/>
<path fill="#C8AC1B" opacity="1.000000" stroke="none" 
	d="
M217.042526,133.421722 
	C219.453491,127.787666 221.651794,122.490585 224.181824,117.357002 
	C224.797455,116.107857 226.503647,115.396187 228.064667,114.549667 
	C225.232101,121.296867 221.841125,127.846191 218.973892,134.617294 
	C218.078735,136.731308 218.597885,139.444229 218.467834,142.318634 
	C218.365189,143.218307 218.264297,143.682327 218.131180,144.501877 
	C214.522324,141.509842 216.200348,137.616211 217.042526,133.421722 
z"/>
<path fill="#BF8F26" opacity="1.000000" stroke="none" 
	d="
M348.074951,140.265930 
	C348.021118,140.071487 348.403107,140.092941 348.584900,140.151093 
	C348.766724,140.209229 348.747833,140.642548 348.698975,140.853424 
	C348.420288,140.911377 348.246521,140.710068 348.074951,140.265930 
z"/>
<path fill="#BF8F26" opacity="1.000000" stroke="none" 
	d="
M347.278625,139.103745 
	C347.509491,139.025665 347.711639,139.239609 347.890228,139.742828 
	C347.661377,139.821579 347.455780,139.609467 347.278625,139.103745 
z"/>
<path fill="#999D36" opacity="1.000000" stroke="none" 
	d="
M230.209991,128.800507 
	C230.309586,127.962204 230.740692,127.050179 231.434280,125.977112 
	C231.311661,126.786316 230.926559,127.756554 230.209991,128.800507 
z"/>
<path fill="#999D36" opacity="1.000000" stroke="none" 
	d="
M228.763428,131.344788 
	C228.743774,130.692703 229.041733,129.961090 229.600174,129.070923 
	C229.600784,129.696671 229.340897,130.480972 228.763428,131.344788 
z"/>
<path fill="#999D36" opacity="1.000000" stroke="none" 
	d="
M231.987610,125.648514 
	C231.899063,125.252831 232.076965,124.718117 232.493896,124.023636 
	C232.573303,124.412415 232.413681,124.960953 231.987610,125.648514 
z"/>
<path fill="#999D36" opacity="1.000000" stroke="none" 
	d="
M233.025635,123.667816 
	C232.993164,123.290092 233.215424,122.782455 233.695953,122.155388 
	C233.729614,122.536606 233.505005,123.037254 233.025635,123.667816 
z"/>
<path fill="#408A49" opacity="1.000000" stroke="none" 
	d="
M242.429657,111.948433 
	C242.372208,111.723083 242.510620,111.451920 242.818390,111.203163 
	C243.003922,111.524551 242.883194,111.750244 242.429657,111.948433 
z"/>
<path fill="#999D36" opacity="1.000000" stroke="none" 
	d="
M245.122772,110.771820 
	C245.124283,110.392754 245.383972,109.909615 245.908966,109.338707 
	C245.909821,109.723206 245.645401,110.195473 245.122772,110.771820 
z"/>
<path fill="#999D36" opacity="1.000000" stroke="none" 
	d="
M236.046265,119.716293 
	C235.955521,119.529617 236.098618,119.210770 236.473419,118.757179 
	C236.563446,118.943001 236.421768,119.263565 236.046265,119.716293 
z"/>
<path fill="#F79E05" opacity="1.000000" stroke="none" 
	d="
M342.163391,280.296875 
	C342.012268,279.977478 342.023712,279.482025 342.033325,279.234131 
	C342.485535,278.229645 343.222260,277.510223 343.323425,276.710419 
	C344.022766,271.179993 344.615326,265.635529 345.189362,260.090088 
	C345.524017,256.857117 346.335876,253.537384 345.916687,250.392151 
	C345.151794,244.653046 348.195709,241.793671 352.832397,239.265778 
	C356.678223,245.398972 360.325439,251.815750 363.997498,258.605408 
	C363.779816,262.393707 363.731812,265.839203 363.211731,269.211884 
	C362.956055,270.869934 362.163361,273.444580 361.036682,273.806061 
	C353.946350,276.081085 352.899017,282.285858 351.045807,288.040405 
	C350.798096,288.809601 350.591461,289.592041 349.994995,291.643890 
	C347.815826,289.519073 346.200195,287.943695 344.306396,286.177429 
	C343.457001,284.196442 342.885773,282.406372 342.163391,280.296875 
z"/>
<path fill="#4D9E52" opacity="1.000000" stroke="none" 
	d="
M297.186462,319.732300 
	C297.143036,319.571167 297.337463,319.377014 297.732849,319.097534 
	C297.831207,319.283691 297.661346,319.512695 297.186462,319.732300 
z"/>
</svg>