<svg width="36" height="37" viewBox="0 0 36 37" fill="none" xmlns="http://www.w3.org/2000/svg">
<path d="M29.2267 13.0183L18.9467 5.5541C18.8228 5.42618 18.6753 5.32464 18.5128 5.25535C18.3504 5.18606 18.1761 5.15039 18.0001 5.15039C17.8241 5.15039 17.6498 5.18606 17.4873 5.25535C17.3248 5.32464 17.1774 5.42618 17.0534 5.5541L6.77348 13.032C6.52473 13.2886 6.32828 13.5934 6.19552 13.9284C6.06277 14.2634 5.99636 14.6221 6.00015 14.9837V26.4208C5.99912 27.1194 6.25985 27.7919 6.72865 28.2997C7.19745 28.8075 7.83862 29.112 8.52014 29.1504H13.9526V21.4738C13.9526 21.1118 14.0931 20.7647 14.3431 20.5087C14.5932 20.2528 14.9323 20.109 15.2859 20.109H20.7142C21.0678 20.109 21.407 20.2528 21.657 20.5087C21.9071 20.7647 22.0475 21.1118 22.0475 21.4738V29.1504H27.48C28.1615 29.112 28.8027 28.8075 29.2715 28.2997C29.7403 27.7919 30.001 27.1194 30 26.4208V14.9837C30.0011 14.2507 29.7238 13.5459 29.2267 13.0183Z" fill="black"/>
</svg>
