<svg width="36" height="37" viewBox="0 0 36 37" fill="none" xmlns="http://www.w3.org/2000/svg">
<path d="M17.9999 16.7505C19.1597 16.7505 20.0999 15.8103 20.0999 14.6505C20.0999 13.4907 19.1597 12.5505 17.9999 12.5505C16.8401 12.5505 15.8999 13.4907 15.8999 14.6505C15.8999 15.8103 16.8401 16.7505 17.9999 16.7505Z" fill="black"/>
<path d="M17.9999 4.15063C15.0488 4.15049 12.2169 5.31508 10.1198 7.39131C8.02256 9.46753 6.82956 12.2876 6.80005 15.2385C6.80005 22.9104 16.6699 31.4503 17.0899 31.8143C17.3435 32.0312 17.6662 32.1504 17.9999 32.1504C18.3336 32.1504 18.6563 32.0312 18.9099 31.8143C19.3999 31.4503 29.1998 22.9104 29.1998 15.2385C29.1703 12.2876 27.9773 9.46753 25.8801 7.39131C23.7829 5.31508 20.951 4.15049 17.9999 4.15063ZM17.9999 19.5505C17.0308 19.5505 16.0835 19.2631 15.2777 18.7247C14.4719 18.1863 13.8438 17.421 13.473 16.5256C13.1021 15.6303 13.0051 14.6451 13.1941 13.6946C13.3832 12.7441 13.8499 11.871 14.5351 11.1857C15.2204 10.5005 16.0935 10.0338 17.044 9.84472C17.9945 9.65566 18.9797 9.75269 19.8751 10.1236C20.7704 10.4944 21.5357 11.1225 22.0741 11.9283C22.6125 12.734 22.8999 13.6814 22.8999 14.6505C22.8999 15.9501 22.3836 17.1964 21.4647 18.1153C20.5458 19.0342 19.2995 19.5505 17.9999 19.5505Z" fill="black"/>
</svg>
