<svg width="36" height="37" viewBox="0 0 36 37" fill="none" xmlns="http://www.w3.org/2000/svg">
<path fill-rule="evenodd" clip-rule="evenodd" d="M18 32.1504C25.732 32.1504 32 25.8824 32 18.1504C32 10.4184 25.732 4.15039 18 4.15039C10.268 4.15039 4 10.4184 4 18.1504C4 25.8824 10.268 32.1504 18 32.1504ZM18 30.1504C24.6274 30.1504 30 24.7778 30 18.1504C30 11.523 24.6274 6.15039 18 6.15039C11.3726 6.15039 6 11.523 6 18.1504C6 24.7778 11.3726 30.1504 18 30.1504ZM18 28.8284C23.8973 28.8284 28.678 24.0477 28.678 18.1504C28.678 12.2531 23.8973 7.47242 18 7.47242C12.1027 7.47242 7.32203 12.2531 7.32203 18.1504C7.32203 24.0477 12.1027 28.8284 18 28.8284ZM23.6338 11.7459C23.0093 11.1178 22.1736 10.7775 21.2853 10.7775C19.614 10.7775 18.2331 12.0077 17.9956 13.5955C17.7669 12.0077 16.3771 10.7775 14.7147 10.7775C12.8763 10.7775 11.3898 12.2519 11.3898 14.0753V16.9893C11.3898 18.804 12.8763 20.2871 14.7147 20.2871C15.4535 20.2871 16.1396 20.0428 16.6938 19.6328V20.4267C16.6938 20.7931 16.9928 21.0898 17.3623 21.0898C17.7317 21.0898 18.0307 20.7931 18.0307 20.4267V17.6611C18.3474 19.153 19.6844 20.2871 21.2853 20.2871C23.1148 20.2871 24.6101 18.8127 24.6101 16.9893V14.0753C24.6101 13.1942 24.2583 12.3654 23.6338 11.7459ZM14.7147 18.9523C13.624 18.9523 12.7356 18.0711 12.7356 16.9893V14.0753C12.7356 12.9935 13.624 12.1124 14.7147 12.1124C15.8054 12.1124 16.6938 12.9935 16.6938 14.0753V14.8344C16.6938 15.2008 16.9928 15.4974 17.3623 15.4974C17.6261 15.4974 17.8548 15.3491 17.9604 15.131V16.5705C17.8548 16.3524 17.6261 16.2041 17.3623 16.2041H15.5503C15.1808 16.2041 14.8818 16.5007 14.8818 16.8672C14.8818 17.2336 15.1808 17.5302 15.5503 17.5302H16.6146C16.3859 18.3503 15.6206 18.9523 14.7147 18.9523ZM23.2643 16.9893C23.2643 18.0711 22.376 18.9523 21.2853 18.9523C20.1946 18.9523 19.3062 18.0711 19.3062 16.9893V14.0753C19.3062 12.9935 20.1946 12.1124 21.2853 12.1124C21.813 12.1124 22.3144 12.313 22.6838 12.6882C23.062 13.0633 23.2643 13.5519 23.2643 14.0753V16.9893ZM22.3144 22.0058C21.989 21.8401 21.5843 21.9622 21.4084 22.285C20.7575 23.5152 19.4821 24.248 17.9956 24.248C16.5091 24.248 15.2337 23.5152 14.5828 22.285C14.4156 21.9622 14.011 21.8313 13.6768 22.0058C13.3513 22.1716 13.2194 22.5729 13.3953 22.9044C14.2661 24.5534 16.0253 25.5828 17.9956 25.5828C19.9659 25.5828 21.7251 24.5534 22.5959 22.9044C22.7718 22.5729 22.6399 22.1716 22.3144 22.0058Z" fill="black"/>
</svg>
