<svg width="36" height="37" viewBox="0 0 36 37" fill="none" xmlns="http://www.w3.org/2000/svg">
<path d="M31.489 5.5472C31.3083 5.39472 31.0971 5.28642 30.871 5.23027C30.6449 5.17411 30.4096 5.17153 30.1824 5.2227L18.0806 8.06209L5.97875 5.19025C5.74795 5.13588 5.5083 5.13715 5.27805 5.19395C5.04779 5.25076 4.83299 5.36161 4.64999 5.51806C4.467 5.67452 4.32064 5.87246 4.22204 6.09681C4.12345 6.32117 4.07522 6.56603 4.08104 6.81276V26.6074C4.07225 26.9824 4.18834 27.3491 4.40956 27.6449C4.63077 27.9407 4.94344 28.1474 5.29433 28.2299L17.7384 31.1504H18.0806H18.4228L30.8668 28.2299C31.2177 28.1474 31.5304 27.9407 31.7516 27.6449C31.9728 27.3491 32.0889 26.9824 32.0801 26.6074V6.81276C32.079 6.56905 32.0253 6.32873 31.923 6.10963C31.8207 5.89054 31.6723 5.6983 31.489 5.5472ZM7.19204 8.8409L16.5251 11.0313V27.4997L7.19204 25.3094V8.8409ZM28.9691 25.3094L19.6361 27.4997V11.0313L28.9691 8.8409V25.3094Z" fill="black"/>
</svg>
