<svg width="36" height="36" viewBox="0 0 36 36" fill="none" xmlns="http://www.w3.org/2000/svg">
<path d="M13.5 16.5002C14.6867 16.5002 15.8467 16.1484 16.8334 15.4891C17.8201 14.8298 18.5892 13.8927 19.0433 12.7963C19.4974 11.7 19.6162 10.4936 19.3847 9.3297C19.1532 8.16582 18.5818 7.09672 17.7426 6.25761C16.9035 5.41849 15.8344 4.84705 14.6705 4.61554C13.5067 4.38402 12.3003 4.50284 11.2039 4.95697C10.1075 5.4111 9.17047 6.18013 8.51118 7.16683C7.85189 8.15352 7.5 9.31356 7.5 10.5002C7.5 12.0915 8.13214 13.6177 9.25736 14.7429C10.3826 15.8681 11.9087 16.5002 13.5 16.5002ZM13.5 7.50025C14.0933 7.50025 14.6734 7.67619 15.1667 8.00584C15.6601 8.33548 16.0446 8.80402 16.2716 9.3522C16.4987 9.90037 16.5581 10.5036 16.4424 11.0855C16.3266 11.6675 16.0409 12.202 15.6213 12.6216C15.2018 13.0411 14.6672 13.3268 14.0853 13.4426C13.5033 13.5584 12.9001 13.4989 12.352 13.2719C11.8038 13.0448 11.3352 12.6603 11.0056 12.167C10.6759 11.6736 10.5 11.0936 10.5 10.5002C10.5 9.7046 10.8161 8.94154 11.3787 8.37893C11.9413 7.81632 12.7044 7.50025 13.5 7.50025Z" fill="black"/>
<path d="M25.4998 19.5002C26.3898 19.5002 27.2598 19.2363 27.9998 18.7419C28.7398 18.2474 29.3166 17.5446 29.6572 16.7223C29.9978 15.9001 30.0869 14.9953 29.9133 14.1223C29.7397 13.2494 29.3111 12.4476 28.6817 11.8183C28.0524 11.1889 27.2506 10.7603 26.3777 10.5867C25.5047 10.4131 24.5999 10.5022 23.7777 10.8428C22.9554 11.1834 22.2526 11.7602 21.7581 12.5002C21.2637 13.2402 20.9998 14.1102 20.9998 15.0002C20.9998 16.1937 21.4739 17.3383 22.3178 18.1822C23.1617 19.0261 24.3063 19.5002 25.4998 19.5002ZM25.4998 13.5002C25.7964 13.5002 26.0864 13.5882 26.3331 13.753C26.5798 13.9179 26.772 14.1521 26.8856 14.4262C26.9991 14.7003 27.0288 15.0019 26.9709 15.2929C26.9131 15.5839 26.7702 15.8511 26.5604 16.0609C26.3506 16.2707 26.0834 16.4135 25.7924 16.4714C25.5014 16.5293 25.1998 16.4996 24.9257 16.3861C24.6516 16.2725 24.4174 16.0803 24.2526 15.8336C24.0877 15.5869 23.9998 15.2969 23.9998 15.0002C23.9998 14.6024 24.1578 14.2209 24.4391 13.9396C24.7204 13.6583 25.1019 13.5002 25.4998 13.5002Z" fill="black"/>
<path d="M25.4998 21C23.8375 21.0018 22.2229 21.5558 20.9098 22.575C19.4405 21.1115 17.5708 20.1159 15.5365 19.7136C13.5021 19.3113 11.3942 19.5205 9.4786 20.3147C7.56296 21.1088 5.92538 22.4525 4.77237 24.1761C3.61936 25.8998 3.00256 27.9262 2.99976 30C2.99976 30.3978 3.15779 30.7793 3.4391 31.0606C3.7204 31.3419 4.10193 31.5 4.49976 31.5C4.89758 31.5 5.27911 31.3419 5.56042 31.0606C5.84172 30.7793 5.99976 30.3978 5.99976 30C5.99976 28.0108 6.78993 26.1032 8.19646 24.6967C9.60298 23.2901 11.5106 22.5 13.4998 22.5C15.4889 22.5 17.3965 23.2901 18.8031 24.6967C20.2096 26.1032 20.9998 28.0108 20.9998 30C20.9998 30.3978 21.1578 30.7793 21.4391 31.0606C21.7204 31.3419 22.1019 31.5 22.4998 31.5C22.8976 31.5 23.2791 31.3419 23.5604 31.0606C23.8417 30.7793 23.9998 30.3978 23.9998 30C24.0033 28.2426 23.5594 26.5133 22.7098 24.975C23.3726 24.4511 24.1696 24.1245 25.0094 24.0325C25.8493 23.9404 26.6981 24.0866 27.4587 24.4544C28.2193 24.8222 28.861 25.3967 29.3104 26.1121C29.7598 26.8276 29.9987 27.6551 29.9998 28.5C29.9998 28.8978 30.1578 29.2793 30.4391 29.5606C30.7204 29.8419 31.1019 30 31.4998 30C31.8976 30 32.2791 29.8419 32.5604 29.5606C32.8417 29.2793 32.9998 28.8978 32.9998 28.5C32.9998 26.5108 32.2096 24.6032 30.8031 23.1967C29.3965 21.7901 27.4889 21 25.4998 21Z" fill="black"/>
</svg>
