<svg width="22" height="23" viewBox="0 0 22 23" fill="none" xmlns="http://www.w3.org/2000/svg">
<path fill-rule="evenodd" clip-rule="evenodd" d="M10.3798 2.52652C8.21342 2.52652 6.45723 4.28515 6.45723 6.45455C6.45723 8.62394 8.21342 10.3826 10.3798 10.3826C12.5462 10.3826 14.3023 8.62394 14.3023 6.45455C14.3023 4.28515 12.5462 2.52652 10.3798 2.52652ZM4.49595 6.45455C4.49595 3.20046 7.13024 0.5625 10.3798 0.5625C13.6293 0.5625 16.2636 3.20046 16.2636 6.45455C16.2636 9.70863 13.6293 12.3466 10.3798 12.3466C7.13024 12.3466 4.49595 9.70863 4.49595 6.45455ZM5.13186 14.3106C4.14274 14.3106 3.3084 15.0482 3.18572 16.031L2.80278 19.0988C2.72962 19.6849 3.18602 20.2027 3.77584 20.2027H15.2831C15.8247 20.2027 16.2637 20.6423 16.2637 21.1847C16.2637 21.727 15.8247 22.1667 15.2831 22.1667H3.77584C2.00627 22.1667 0.637167 20.6135 0.856646 18.8552L1.23959 15.7874C1.48496 13.8217 3.15363 12.3466 5.13186 12.3466H5.4767C6.01829 12.3466 6.45734 12.7863 6.45734 13.3286C6.45734 13.8709 6.01829 14.3106 5.4767 14.3106H5.13186ZM20.8569 12.6122C21.252 12.9831 21.272 13.6046 20.9016 14.0002L17.2242 17.9283C16.8607 18.3165 16.2545 18.3442 15.8573 17.9906L13.6508 16.0266C13.2461 15.6663 13.2096 15.0456 13.5694 14.6402C13.9292 14.2349 14.5491 14.1983 14.9538 14.5587L16.4465 15.8873L19.4708 12.657C19.8412 12.2613 20.4618 12.2413 20.8569 12.6122Z" fill="white"/>
</svg>
